<?xml version="1.0" encoding="utf-8"?>
<!-- Generator: Adobe Illustrator 24.2.1, SVG Export Plug-In . SVG Version: 6.00 Build 0)  -->
<svg version="1.1" id="Layer_1" xmlns="http://www.w3.org/2000/svg" xmlns:xlink="http://www.w3.org/1999/xlink" x="0px" y="0px"
	 viewBox="0 0 233.1 260.7" style="enable-background:new 0 0 233.1 260.7;" xml:space="preserve">
<style type="text/css">
	.st0{opacity:0.17;fill:#333340;enable-background:new    ;}
	.st1{fill:#F5ADA7;}
	.st2{opacity:0.14;fill:#1F1F3A;enable-background:new    ;}
	.st3{fill:#FFFFFF;}
	.st4{fill:#1F1F3A;}
	.st5{fill:#3B3B4D;}
	.st6{opacity:0.46;fill:#1F1F3A;enable-background:new    ;}
	.st7{opacity:0.79;fill:#1F1F3A;enable-background:new    ;}
	.st8{opacity:0.35;fill:#1F1F3A;enable-background:new    ;}
	.st9{fill:#3D214B;}
	.st10{fill:#E79E9C;}
	.st11{opacity:0.24;fill:#1F1F3A;enable-background:new    ;}
	.st12{fill:#F7A715;}
	.st13{fill:#1B1C39;}
	.st14{fill:#F8AC16;}
	
		.st15{opacity:0.75;fill:none;stroke:#FFFFFF;stroke-width:13.9297;stroke-linecap:round;stroke-linejoin:round;stroke-miterlimit:10;enable-background:new    ;}
	.st16{fill:#ABABAF;}
	.st17{opacity:0.65;}
	.st18{fill:none;stroke:#F7A600;stroke-width:14;stroke-linejoin:round;stroke-miterlimit:10;}
	.st19{fill:#F8AC16;stroke:#F7A600;stroke-width:14.0002;stroke-miterlimit:10.0002;}
	.st20{clip-path:url(#SVGID_4_);}
	.st21{clip-path:url(#SVGID_5_);fill:url(#SVGID_6_);}
	.st22{opacity:0.23;fill:url(#SVGID_7_);enable-background:new    ;}
	.st23{opacity:0.18;fill:#1F1F3A;enable-background:new    ;}
	.st24{fill:#F0A990;}
	.st25{opacity:9.000000e-02;fill:#1F1F39;enable-background:new    ;}
	.st26{fill:#F9B233;}
</style>
<g>
	<path class="st0" d="M122.3,250.3c0,1.3,15.2,2.8,32.6,2.8s31.6-1.1,31.6-2.4c0-1.3-14.2-2.4-31.6-2.4S122.3,249,122.3,250.3z"/>
	<path class="st1" d="M146.1,127.6c0.9-0.8-0.1-1,1.5-1.6c2.2-0.9,1.9-2.2,2.9-3.2c0.4-0.4,1.7-1.2,3.2-1.5c1.8-0.3,3.4-0.6,4.8,1
		c1.1,1.3-3.9,0.2-4.7,1.5c-0.4,0.6,1.9,0.7,2,1.8c0.1,1.1-2.4-0.4-3.9,0.8c-1.3,1.1-3.5,2.5-4.2,2.8
		C146.9,129.5,146.1,127.6,146.1,127.6z"/>
	<g>
		<path class="st1" d="M159.7,143.9l4-1.3c0-1.9-2.2-5.6-2.5-7.3c-0.4-1.8-2.7-3.4-2.7-3.4l-1.2,3.9l0.1,0.3c0,0,0.4,3.2-0.1,4.6
			c-0.3,0.8,0,2.1-0.9,3.4C155.8,145.1,159.7,143.9,159.7,143.9z"/>
		<path class="st2" d="M157.4,136.8c0,0,0.3,2,0.1,3.3c2.6,1,3.8-1.9,3.1-2.6c-0.4-0.4-1.9-1.4-1.9-1.4L157.4,136.8z"/>
	</g>
	<path class="st3" d="M149.1,246c-0.2-1.8-0.1-6.4-0.1-6.4l5-0.2l-0.3,6.9l-3.3,2.2L149.1,246z"/>
	<path class="st4" d="M148.7,244.5c-0.4-0.3-1.4,0.8-1.6,1.6c-0.4,1.7-6,2-7,2.1c-0.5,0.1-1.3,2.6,1.2,2.6c2.2,0,9.2,0,11.6,0
		c0.5,0,0.9-0.3,1.1-0.8c0.4-1.7,0.5-5.6-0.2-5.6C153,244.5,150.3,245.7,148.7,244.5z"/>
	<path class="st3" d="M168.2,246c-0.2-1.8-0.1-6.4-0.1-6.4l5-0.2l-0.2,6.9l-3.3,2.2L168.2,246z"/>
	<path class="st4" d="M167.7,244c-0.5,0-0.4,0.5-0.6,1.3c-0.4,1.7-6.7,2.9-7.7,3c-0.5,0.1-1.3,2.6,1.2,2.6c2.2,0,9.2-0.1,11.6-0.1
		c0.5,0,0.9-0.3,1.1-0.8c0.4-1.7,0.6-6.3-0.1-6.3C172.3,243.8,170.1,243.8,167.7,244z"/>
	<path class="st5" d="M175.4,186.5c-0.1,0.8-0.1,1.7-0.3,2.7c-0.4,3.6-1.3,15.9-1.1,23.7c0.2,7.8-0.5,25.9-0.5,28.7
		c-2.4,1-3.8,0.7-7.2,0c0,0-0.6-15-1.3-28.1c-0.5-10.6-0.7-9.6-2.6-23.1l0,0c0,0.1-0.5,1.4-1.2,3.4c-1.5,4.3-4,11.9-5.1,17.4
		c-1.9,8.6-0.9,30.9-1.7,31.6c-2.3,1.4-6.2,1.5-7.3-0.4c0,0-0.4-27.6,0.4-31.9c0.6-2.9,5.3-31.7,6.3-39.5c0,0,20.7-4.5,21.4,2.6
		c0.1,1,0.1,1.8,0.1,2.6c0,1.1,0,2.1,0.1,3.2C175.5,181.3,175.6,183.4,175.4,186.5z"/>
	<path class="st6" d="M164.2,186.5C164.2,186.5,164.2,186.5,164.2,186.5C164.2,186.4,164.2,186.4,164.2,186.5
		C164.2,186.4,164.2,186.5,164.2,186.5z"/>
	<path class="st7" d="M162.4,190.3L162.4,190.3c0,0.1-0.9,2.6-1.6,4.7l0.8-8.2C161.6,186.8,161.6,187.3,162.4,190.3z"/>
	<path class="st8" d="M175.5,184.4c-0.2,0-8.2-1.7-9.2-5.7c0,0,6.9,0.6,9.2,0.8C175.5,181.3,175.5,183.3,175.5,184.4z"/>
	<path class="st3" d="M163,139.5c-1.8-0.5-2,2.5-3.8,2.6c-1,0.1-0.7-0.3-1.2-0.8c-0.3-0.3-0.5-0.6-1-0.1c-8.9,9.2,0.4,32.3-0.8,33.9
		c-0.9,1.3,6.6,4.2,11.4,3c6.5-1.6,6.1-8.7,5.9-10c-0.2-1.4-4.4-24.3-4.4-24.3S165.9,142,163,139.5z"/>
	<path class="st9" d="M158.6,177.1c0,1.8-0.3,3.1-0.9,3.7c-1.2,1.1-2.8,1.3-4.8-0.8c-0.1-0.1-0.2-0.2-0.3-0.4
		c-2.7-3.6-0.8-13.6-0.5-16.1c0.1-1,0.4-2.3,0.6-3.7c0.3-1.7,0.3-7.3-0.4-8.1c-1.9-2.2-9.2-4.9-14.6-8.2c-1.9-1.2-3.5-2.4-4.6-3.7
		c-1.7-2,2.2-6.3,6.4-10c4.1-3.6,8.6-6.7,8.9-6.7c0.6,0,1.1,0.3,1.4,0.8c0.7,1,0.9,2.6,0.9,3.5c0,0.4,0,0.6,0,0.6
		c-1,2-11.7,9.4-10.9,10.1c3.3,3.3,9.4,4.8,17.3,3.1c0,0,0,0.3,0.1,0.9c0,0.5,0,1.3-0.1,2.4c-0.1,0.6-0.1,1.4-0.2,2.2
		c-0.7,5.3,2.3,9.1,1.7,15.4c-0.3,2.8-0.2,5.5-0.1,8.1C158.5,172.8,158.7,175.2,158.6,177.1z"/>
	<path class="st10" d="M170.4,182.4c-0.2,0.3-0.7,0.3-0.4,0.5c0.3,0.2,3.5,1.7,3.5,1.7s0.3,0.3,0.7-0.2c0.4-0.6,0.4-1.1,0.4-1.1
		L170.4,182.4z"/>
	<path class="st9" d="M176.1,180.6c-2.9,1.8-6.6,1.8-9.1-0.8c-2.1-2.2,0-5-1.5-10.1c-0.9-2.8-2.2-7.9-2.5-11.4
		c-0.6-7.5-0.1-16.7,0-18.8c0,0,4.5,0.1,8.2,4c1.6,1.6,2.5,6.3,2.7,9.8c0.1,1.1,0.1,2,0.1,2.8c0,1.6,0,2.5-0.1,3.6
		c0,0.4,0,0.9-0.1,1.4l0,0c0,0.6,0,1.2-0.1,2c0,1.3,0.4,3.3,0.9,5.6l0,0C176,173.6,177.6,179.7,176.1,180.6z"/>
	<path class="st9" d="M165.9,148.4c10,16.4,10.6,15.4,10.8,18c0.3,2.7-6.7,16-6.7,16s4.1,2.3,4.6,1.6s8.5-16.7,8.1-18.3
		c-0.4-1.5-10.3-20.9-11.6-22.4c-1.3-1.5-6.7-2.1-6.7,0.5C164.6,146.6,165.9,148.4,165.9,148.4z"/>
	<path class="st11" d="M174.8,168.6c-3.8-3.4-4-11.8-4-11.8l3.1,4.3l0,0c0,0.6,0,1.2-0.1,2C173.9,164.2,174.3,166.3,174.8,168.6z"/>
	<path class="st11" d="M175.4,171.1c-0.3,1.2-4.9,10.5-4.9,10.5l4.5-12.2L175.4,171.1z"/>
	<path class="st11" d="M159.6,143c0.2-0.1,1,3.6,2.9,5.3c0.6,0.5,1.2,0.9,1.9,1.1c2,0.7,8.5,1.5,11.2,1.9c-0.4-0.9-1-1.1-1.4-2.9
		c-2.1,0.1-8-0.6-9-1.1c-0.8-0.3-1.5-0.7-2.1-1.2c-1.2-0.9-2.1-2.1-2.7-3c-0.3-0.5-0.2-1.1-0.8-1.2C159,141.7,159.3,143,159.6,143z"
		/>
	<path class="st12" d="M158.7,142c0.1-0.3,0.5-0.8,1.2-0.6c0.5,0.2,0.5,0.4,0.8,0.9c1,1.5,2.6,3.3,4.8,4.2c2.2,0.9,8.4-0.6,11.6,1
		c3.2,1.6,3.4,4.9,8.1,7s10.6,1.5,12,2.2s2.2,1.2,2,1.7s-1.2,1.3-2.3,1.4s-10.3-1.7-12.6-2.7c-3.7-1.6-6.1-5.9-8.5-6.8
		c-2.4-0.9-8.1-0.9-11-1.9c-3.2-1.1-4.8-5.5-5.1-5.4s-0.5,0.2-0.9-0.1C158.4,142.9,158.6,142.3,158.7,142z"/>
	<g>
		<path class="st1" d="M153.7,132.8c0.6,1.3,0.5,4.5,1.3,4c0.9-0.4,1.2,2.8,2.1,2.4c2.3-1.1,4.1-3.8,3.8-5s-2-4.1-2-4.1L153.7,132.8
			z"/>
		<path class="st13" d="M156.6,132.9c-0.7,0.4-0.6,0.6-1.2,0.6s-0.1-1.1-1.1-0.8c-1,0.3-2,0.8-2.7-0.2c-0.9-1.4,0.5-1.9,1.5-2.2
			c0.6-0.2,0.1-1.4,1.2-1.9c0.9-0.4,1,0.1,1.8-0.2c0.5-0.2,1-1.4,1.9-1.2c1.8,0.3,1.4,2.1,3,2.6c1.9,0.6,0.4,4.8-0.1,4.6
			c-0.6-0.2-0.7-1.8-1.3-1.9c-0.8-0.1-0.6,0.4-0.9,1.1c-0.3,0.8-1.3,1.3-1.1,0C157.8,132.3,157.2,132.5,156.6,132.9z"/>
	</g>
</g>
<g>
	<path class="st14" d="M135.5,68.7c0,0.8-0.1,1.6-0.4,2.3l-0.1,4.3l-0.4,17.5l-0.1,3.7l-0.1,2.9l0,1.4l0,0.4
		c-1.8,0.3-3.7,0.4-5.4,0.2h0l0,0c-0.3,0-0.5-0.1-0.8-0.1c0,0-0.1,0-0.1,0c-1.2-0.2-2.2-0.5-3.1-0.9c0,0,0,0,0,0
		c-1.3-0.6-2.1-1.5-2.1-2.7l0,0c0,0,0-0.1,0-0.1c0.1-1.3-0.4-2.7-1.2-4.2l0,0c-4.1-8-20.7-19.5-20.7-36.7c0-20.6,16.1-29,33.5-28.6
		c0.1,0,0.3,0,0.4,0c0.3,0,0.6,0,0.9,0l-0.8,39.1C135.4,67.7,135.5,68.2,135.5,68.7z"/>
	<path class="st15" d="M135.1,75.3c-1.4-0.1-2.7-0.4-3.7-0.9c-2-1-3.1-2.8-3.1-5c0.1-4.8,5.6-5.6,6.9-2.2c0.2,0.4,0.3,0.9,0.3,1.4
		c0,0.8-0.1,1.6-0.4,2.3c-0.6,1.6-2,2.7-3.8,3.4c-1.9,0.8-4.2,1.2-6.5,1.2c-1.9,0-3.8-0.2-5.5-0.7c-4.8-1.3-6.6-10,0.3-8.8
		c2.2,0.4,3.9,4.3,5.1,9.5c1.3,5.2,2.1,11.8,2.7,17.3c0.2,1.6,0.3,3,0.4,4.4c0.1,1,0.2,2,0.2,2.9c0,0.4,0.1,0.9,0.1,1.2
		c0,0.1,0,0.1,0,0.2c0.1,1.7,0.2,2.8,0.2,2.8"/>
	<path class="st5" d="M134.7,92.8l-0.1,3.7l-0.1,2.9l0,1.4l0,0.4l-0.1,2.5l0,1.4l-0.1,2.9l-0.1,6.7c-0.6,0.1-1.2,0.2-1.8,0.2h-0.7
		c-4.1,0-7.6-2.3-9.1-5.6c-0.4-0.9-0.7-1.8-0.8-2.8c0-0.3-0.1-0.6-0.1-0.9c0,0,0-0.2-0.1-0.6c-0.1-0.6-0.2-1.6-0.3-2.7
		c-0.1-0.5-0.1-1.1-0.1-1.7c-0.1-0.8-0.1-1.7-0.1-2.5c-0.1-2.3,0-4.3,0.6-4.7c0,0,0,0,0.1,0c0.6-0.3,2.9-0.4,5.8-0.6
		C129.8,92.8,132.4,92.8,134.7,92.8z"/>
	<path class="st16" d="M134.7,96.5l-0.1,2.9l-6.4,0.7l-3.1,0.3l-2.9,0.3c-0.3,0-0.6,0-0.8-0.2c-0.4-0.2-0.7-0.6-0.7-1l0-0.3
		c-0.1-0.5,0.2-1,0.6-1.2c0.2-0.1,0.4-0.2,0.6-0.2l1.2-0.1l5-0.6L134.7,96.5z"/>
	<path class="st16" d="M134.6,100.9l0,0.4l-0.1,2.5l-12.3,1.4c-0.2,0-0.3,0-0.5,0c-0.6-0.1-1-0.6-1.1-1.1l0-0.3
		c-0.1-0.6,0.3-1.1,0.9-1.3c0.1-0.1,0.3-0.1,0.4-0.1l6.4-0.7l0.8-0.1l0,0L134.6,100.9z"/>
	<path class="st16" d="M122.2,106.5l12.3-1.4l-0.1,2.9l-11.8,1.3l-0.1,0c-0.8,0.1-1.5-0.4-1.6-1.1l0-0.3c-0.1-0.6,0.3-1.2,0.9-1.4
		C122,106.5,122.1,106.5,122.2,106.5z"/>
	<g class="st17">
		<g>
			<g>
				<path class="st3" d="M118.9,36.3c0.3-0.2,0.7-0.4,1.1-0.6c0.4-0.2,0.8-0.5,1.3-0.8c0.5-0.3,1-0.5,1.6-0.8
					c0.6-0.2,1.2-0.4,1.9-0.6h0c1.5-0.3,2.9,0.7,3.2,2.1s-0.6,2.9-2.1,3.2c0,0,0,0,0,0c-0.5,0.1-1.1,0.3-1.9,0.7
					c-0.4,0.2-0.7,0.4-1.1,0.7c-0.4,0.3-0.9,0.5-1.4,0.8c-1.3,0.7-2.9,0.1-3.6-1.2C117.1,38.6,117.6,37,118.9,36.3L118.9,36.3z"/>
			</g>
		</g>
		<g>
			<g>
				<path class="st3" d="M109.2,58.4c-0.2-1.3-0.3-2.7-0.3-4.1s0.1-2.8,0.4-4.2s0.7-2.7,1.2-4c0.5-1.3,1.1-2.5,1.9-3.7
					c0.8-1.3,2.4-1.7,3.6-0.9c1.2,0.8,1.6,2.4,0.9,3.6v0c-0.6,1-1.1,1.9-1.4,2.9c-0.4,1-0.7,2-0.9,3c-0.2,1-0.3,2.1-0.3,3.2
					c0,1.1,0.1,2.2,0.3,3.3v0c0.2,1.5-0.8,2.8-2.2,3.1S109.5,59.9,109.2,58.4L109.2,58.4z"/>
			</g>
		</g>
	</g>
</g>
<g>
	<path class="st18" d="M145.1,34.2c19.7,0,27.5,12.4,27.4,23C172.5,71,150.2,76.8,150.1,86c-0.1,6.2,0,13.3,0,13.3"/>
	<ellipse transform="matrix(0.1602 -0.9871 0.9871 0.1602 18.6981 239.3963)" class="st19" cx="150" cy="108.7" rx="6.2" ry="6.2"/>
</g>
<g>
	<g>
		<defs>
			<polygon id="SVGID_1_" points="-49.3,-11.5 -48.3,-11.5 -49.3,-10.5 			"/>
		</defs>
		<defs>
			<polygon id="SVGID_3_" points="-51.3,-13.5 -52.3,-13.5 -51.3,-14.5 			"/>
		</defs>
		<clipPath id="SVGID_4_">
			<use xlink:href="#SVGID_1_"  style="overflow:visible;"/>
		</clipPath>
		<clipPath id="SVGID_5_" class="st20">
			<use xlink:href="#SVGID_3_"  style="overflow:visible;"/>
		</clipPath>
		
			<linearGradient id="SVGID_6_" gradientUnits="userSpaceOnUse" x1="812.6336" y1="10.01" x2="966.7136" y2="10.01" gradientTransform="matrix(1 0 0 -1 -860.8136 258.5354)">
			<stop  offset="0" style="stop-color:#000000"/>
			<stop  offset="1.200000e-02" style="stop-color:#090909"/>
			<stop  offset="8.860001e-02" style="stop-color:#3C3C3C"/>
			<stop  offset="0.1706" style="stop-color:#6A6A6A"/>
			<stop  offset="0.2562" style="stop-color:#929292"/>
			<stop  offset="0.3462" style="stop-color:#B4B4B4"/>
			<stop  offset="0.4417" style="stop-color:#CFCFCF"/>
			<stop  offset="0.5449" style="stop-color:#E5E5E5"/>
			<stop  offset="0.6594" style="stop-color:#F4F4F4"/>
			<stop  offset="0.7942" style="stop-color:#FCFCFC"/>
			<stop  offset="1" style="stop-color:#FFFFFF"/>
		</linearGradient>
		<path class="st21" d="M-48.2,248.1c0,1.3,36.3,2.9,78.2,2.9s75.8-1.1,75.8-2.4c0-1.3-34-2.4-75.8-2.4S-48.2,246.7-48.2,248.1z"/>
	</g>
</g>
<linearGradient id="SVGID_7_" gradientUnits="userSpaceOnUse" x1="812.6336" y1="10.01" x2="966.7136" y2="10.01" gradientTransform="matrix(1 0 0 -1 -860.8136 258.5354)">
	<stop  offset="0" style="stop-color:#FFFFFF"/>
	<stop  offset="1.200000e-02" style="stop-color:#F6F6F6"/>
	<stop  offset="8.860001e-02" style="stop-color:#C3C3C3"/>
	<stop  offset="0.1706" style="stop-color:#959595"/>
	<stop  offset="0.2562" style="stop-color:#6D6D6D"/>
	<stop  offset="0.3462" style="stop-color:#4B4B4B"/>
	<stop  offset="0.4417" style="stop-color:#303030"/>
	<stop  offset="0.5449" style="stop-color:#1A1A1A"/>
	<stop  offset="0.6594" style="stop-color:#0B0B0B"/>
	<stop  offset="0.7942" style="stop-color:#030303"/>
	<stop  offset="1" style="stop-color:#000000"/>
</linearGradient>
<path class="st22" d="M-48.2,248.1c0,1.3,36.3,2.9,78.2,2.9s75.8-1.1,75.8-2.4c0-1.3-34-2.4-75.8-2.4S-48.2,246.7-48.2,248.1z"/>
<path class="st23" d="M139.5,129.8c-0.7,6.3-1.4,11-1.8,13.8c-1.9-1.2-3.5-2.4-4.6-3.7C131.4,137.8,135.3,133.5,139.5,129.8z"/>
<g>
	<path class="st24" d="M139.7,122c-3.5,15.7-4.6,32.9-10.2,34.9c-5.6,2-9.5,8.4-23.7,15.7c-0.5,0.3-1,0.5-1.5,0.8
		c-13,6.6-17.3,7.3-42.1,6.2c-2.7-0.1-6.5-0.7-10.9-1.6c-3.1-0.6-6.4-1.4-10.2-2.3c-10.1-2.5-22.5-5.9-35.9-9.7
		c-1.7-0.5-3.5-1-5.3-1.5v-42.1c16.3,7.5,41.6,18.8,55.3,24.8c2.9,1.3,5.3,2.3,6.9,3c1.2,0.5,2,0.8,2.4,1c4.9,1.9,6.8,2.9,13.4-1.4
		c3.7-8.4,14.9-22.7,19.7-25.4c4.9-2.7,18.6-16.8,22.1-18.1c3.5-1.3,1.8,3.1,1.9,6.6c0.1,3.5-7.1,11.7-11.3,18.1
		c-4.2,6.4-4.7,12.7,4,12.3c8.8-0.4,15.4-14.3,20.3-36.2C141.6,94.4,143.2,106.4,139.7,122z"/>
	<path class="st3" d="M62.2,150.1c-0.1,3.3-3.2,11.4-6.3,18.4c-1.8,3.9-3.5,7.5-4.7,9.5c-0.1,0.1-0.2,0.3-0.3,0.4
		c-0.1,0.1-0.2,0.3-0.2,0.4c-0.1,0.2-0.3,0.4-0.4,0.6c-0.5,0.7-4.5,0.2-11-1c-9.1-1.8-23-5.1-39.4-9.4v-50.8
		c23.8,11.9,45.5,22.5,55.7,27.5c3.6,1.8,5.7,2.8,6.1,3C62.1,148.9,62.2,149.4,62.2,150.1z"/>
	<path class="st9" d="M55.7,145.7c-0.1,0.4-0.3,0.9-0.4,1.4c-1.7,5.1-5.9,13.6-9.6,20.5c-1.7,3.2-3.3,6.1-4.6,8.1
		c-0.8,1.2-1.3,2.1-1.7,2.6c-0.1,0.1-0.2,0.2-0.2,0.3v0c-0.2,0.1-0.9,0.1-2.2-0.1c0,0-0.1,0-0.1,0c-0.3,0-0.6-0.1-0.9-0.1
		s-0.7-0.1-1-0.2c-0.3-0.1-0.6-0.1-0.9-0.2c-3.8-0.8-9.4-2.1-16.5-3.9c-0.5-0.1-1.1-0.3-1.6-0.4c-0.2,0-0.3-0.1-0.5-0.1
		c-0.6-0.1-1.1-0.3-1.7-0.4c-0.7-0.2-1.5-0.4-2.3-0.6c-0.5-0.1-1-0.3-1.5-0.4c-0.5-0.1-1.1-0.3-1.6-0.4c-0.5-0.1-1-0.3-1.6-0.4
		c-0.5-0.1-1.1-0.3-1.7-0.4c-0.5-0.1-1.1-0.3-1.6-0.4c-0.2-0.1-0.4-0.1-0.6-0.2c-0.5-0.1-1.1-0.3-1.7-0.4c-0.4-0.1-0.8-0.2-1.2-0.3
		v-55.6C29.6,129,54.7,142,55.8,142.8C56.2,143,56.1,144.1,55.7,145.7z"/>
	<path class="st25" d="M104.3,173.4c-13,6.6-17.3,7.3-42.1,6.2c-2.7-0.1-6.5-0.7-10.9-1.6c-0.1,0.1-0.2,0.3-0.3,0.4
		c-0.1,0.1-0.2,0.3-0.2,0.4c-0.1,0.2-0.3,0.4-0.4,0.6c-0.5,0.7-4.5,0.2-11-1c-0.1,0.1-0.2,0.2-0.2,0.3c-0.2,0.1-0.9,0.1-2.2-0.1
		c0,0-0.1,0-0.1,0c-0.3-0.1-0.6-0.1-0.9-0.1c-0.3-0.1-0.7-0.1-1-0.2c-0.3-0.1-0.6-0.1-0.9-0.2c-3.8-0.8-9.4-2.1-16.5-3.9
		c-0.5-0.1-1.1-0.3-1.6-0.4c-0.2,0-0.3-0.1-0.5-0.1c-0.6-0.1-1.1-0.3-1.7-0.4c-0.7-0.2-1.5-0.4-2.3-0.6c-0.5-0.1-1-0.3-1.5-0.4
		c-0.5-0.1-1.1-0.3-1.6-0.4c-0.5-0.1-1-0.3-1.6-0.4c-0.5-0.1-1.1-0.3-1.7-0.4c-0.5-0.1-1.1-0.3-1.6-0.4c-0.2-0.1-0.4-0.1-0.6-0.2
		c-0.5-0.1-1.1-0.3-1.7-0.4c-0.4-0.1-0.8-0.2-1.2-0.3V166c1.9,0,3.6,0,5.3,0c13.5-0.1,21.6,0,40.4,1.6c3.1,0.3,6.5,0.6,10.2,0.9
		C67.7,169.6,83.1,171.2,104.3,173.4z"/>
</g>
<g>
	<g>
		<path class="st26" d="M95.3,68.5L71,70.2c-0.3,0-0.7-0.2-0.7-0.6c0-0.3,0.2-0.7,0.6-0.7l24.2-2.7c0.6-0.1,1.1,0.4,1.2,1
			S95.9,68.4,95.3,68.5C95.3,68.5,95.3,68.5,95.3,68.5z"/>
	</g>
</g>
<g>
	<g>
		<path class="st26" d="M94,49l-16.2-3.6c-0.3-0.1-0.4-0.3-0.4-0.6c0.1-0.3,0.3-0.4,0.6-0.4l16.4,2.8c0.5,0.1,0.8,0.5,0.8,1
			S94.6,49.1,94,49C94.1,49,94,49,94,49z"/>
	</g>
</g>
<g>
	<g>
		<path class="st26" d="M100.8,31.2l-11.7-7.4c-0.1-0.1-0.2-0.3-0.1-0.5c0.1-0.2,0.3-0.2,0.4-0.1l12.2,6.6c0.4,0.2,0.5,0.7,0.3,1.1
			C101.7,31.3,101.2,31.5,100.8,31.2C100.8,31.2,100.8,31.2,100.8,31.2z"/>
	</g>
</g>
<g>
	<g>
		<path class="st26" d="M118,22.5l-6-13c-0.1-0.2,0-0.5,0.2-0.6c0.2-0.1,0.5,0,0.6,0.2l7.3,12.3c0.3,0.5,0.1,1.2-0.4,1.6
			S118.4,23.2,118,22.5C118,22.6,118,22.6,118,22.5z"/>
	</g>
</g>
<g>
	<g>
		<path class="st26" d="M138.4,19L139,7.3c0-0.2,0.2-0.4,0.4-0.4c0.2,0,0.4,0.2,0.4,0.4l0.6,11.8c0,0.5-0.4,1-0.9,1
			S138.4,19.7,138.4,19C138.4,19.1,138.4,19.1,138.4,19z"/>
	</g>
</g>
<g>
	<g>
		<path class="st26" d="M159.9,23.5l6.7-12c0.1-0.2,0.4-0.3,0.6-0.2c0.2,0.1,0.3,0.4,0.2,0.6L162,24.5c-0.3,0.6-0.9,0.8-1.5,0.6
			s-0.8-0.9-0.6-1.5C159.9,23.6,159.9,23.6,159.9,23.5z"/>
	</g>
</g>
<g>
	<g>
		<path class="st26" d="M178.6,31.3l14.3-6.4c0.2-0.1,0.5,0,0.6,0.2c0.1,0.2,0,0.5-0.2,0.6l-13.7,7.7c-0.5,0.3-1.2,0.1-1.5-0.4
			s-0.1-1.2,0.4-1.5C178.6,31.3,178.6,31.3,178.6,31.3z"/>
	</g>
</g>
<g>
	<g>
		<path class="st26" d="M186.1,50l15.6-0.7c0.2,0,0.3,0.1,0.3,0.3c0,0.2-0.1,0.3-0.3,0.3l-15.5,1.6c-0.4,0-0.8-0.3-0.9-0.7
			C185.3,50.4,185.6,50,186.1,50C186,50,186.1,50,186.1,50z"/>
	</g>
</g>
<g>
	<g>
		<path class="st26" d="M183.1,68.8l22,5.4c0.3,0.1,0.5,0.4,0.4,0.7c-0.1,0.3-0.4,0.5-0.7,0.4L182.6,71c-0.6-0.1-1-0.7-0.9-1.3
			C181.9,69.1,182.4,68.7,183.1,68.8C183.1,68.8,183.1,68.8,183.1,68.8z"/>
	</g>
</g>
</svg>
