<?xml version="1.0" encoding="utf-8"?>
<!-- Generator: Adobe Illustrator 24.2.1, SVG Export Plug-In . SVG Version: 6.00 Build 0)  -->
<svg version="1.1" id="Layer_1" xmlns="http://www.w3.org/2000/svg" xmlns:xlink="http://www.w3.org/1999/xlink" x="0px" y="0px"
	 viewBox="0 0 142 139.2" style="enable-background:new 0 0 142 139.2;" xml:space="preserve">
<style type="text/css">
	.st0{fill:#3AB7BB;}
	.st1{fill:#3D214B;}
</style>
<path class="st0" d="M66.9,129.6c-3.3,3.9-9.2,4.4-13.1,1c-0.2-0.2-0.4-0.3-0.5-0.5c0,0-3.4-3.4-8.2-8.2c-0.5-0.6-1.1-1.1-1.6-1.7
	c-3.9-4.5-3.4-10.6-5.8-15.8c-0.9-1.5-2.4-2.1-4.2-2.4c-4.7-0.9-9.2-1.6-12.8-4.6c-0.6-0.5-1.2-1.1-1.7-1.6l-8.2-8.2
	C7,83.9,7,78,10.7,74.3c0.1-0.1,0.3-0.3,0.5-0.4l4.7,4.7c1,1,2,1.9,3,2.9c6.4,5.4,14.4,6.6,22.7,8.1c3.1,0.6,5.9,1.5,7.4,4.3
	c4.3,9.3,3.4,20,10.4,28c1,1.1,1.9,2.1,2.9,3L66.9,129.6z"/>
<path class="st1" d="M117.3,3.2l-103,27.7c-3.1,0.8-5.9,2.6-8.1,5c-5.8,6.5-5.5,16.5,0.7,22.6l7.4,7.4l2.8,2.8l4.4,4.4
	c1,1,2,1.9,3,2.9c6.4,5.4,14.4,6.6,22.7,8.1c3.1,0.6,5.9,1.5,7.4,4.3c4.3,9.3,3.4,20,10.4,28c1,1.1,1.9,2.1,2.9,3l4.4,4.4L82.4,134
	c6.4,6.5,16.9,6.5,23.3,0c2.1-2.1,3.6-4.6,4.3-7.4l27.6-103.1c2.4-8.8-2.9-17.8-11.7-20.2C123.1,2.5,120.1,2.5,117.3,3.2z"/>
</svg>
