<svg id="Ñëîé_1" data-name="Ñëîé 1" xmlns="http://www.w3.org/2000/svg" xmlns:xlink="http://www.w3.org/1999/xlink" viewBox="0 0 438.49 324.79"><defs><style>.cls-1{fill:url(#Áåçûìÿííûé_ãðàäèåíò_33);}.cls-2{fill:url(#Áåçûìÿííûé_ãðàäèåíò_33-2);}.cls-3{fill:url(#Áåçûìÿííûé_ãðàäèåíò_33-3);}.cls-4{fill:#020230;opacity:0.6;}.cls-5{fill:url(#Áåçûìÿííûé_ãðàäèåíò_33-4);}.cls-6{fill:url(#Áåçûìÿííûé_ãðàäèåíò_113);}.cls-7{fill:url(#Áåçûìÿííûé_ãðàäèåíò_109);}.cls-8{fill:url(#Áåçûìÿííûé_ãðàäèåíò_343);}.cls-29,.cls-9{fill:#fff;}.cls-10,.cls-14{opacity:0.4;}.cls-11,.cls-14,.cls-15{fill:#06033e;}.cls-12{fill:url(#Áåçûìÿííûé_ãðàäèåíò_343-2);}.cls-13{fill:url(#Áåçûìÿííûé_ãðàäèåíò_441);}.cls-15,.cls-17,.cls-29{opacity:0.5;}.cls-16{fill:url(#Áåçûìÿííûé_ãðàäèåíò_343-3);}.cls-18{fill:#e8975b;}.cls-19{fill:#f8359e;}.cls-20{fill:url(#Áåçûìÿííûé_ãðàäèåíò_33-5);}.cls-21{fill:url(#Áåçûìÿííûé_ãðàäèåíò_199);}.cls-22{fill:url(#Áåçûìÿííûé_ãðàäèåíò_144);}.cls-23{fill:url(#Áåçûìÿííûé_ãðàäèåíò_483);}.cls-24{fill:url(#Áåçûìÿííûé_ãðàäèåíò_483-2);}.cls-25{fill:url(#Áåçûìÿííûé_ãðàäèåíò_193);}.cls-26{fill:url(#Áåçûìÿííûé_ãðàäèåíò_223);}.cls-27{fill:#0c0a78;}.cls-28{fill:url(#Áåçûìÿííûé_ãðàäèåíò_193-2);}</style><linearGradient id="Áåçûìÿííûé_ãðàäèåíò_33" x1="369.11" y1="430.97" x2="401.72" y2="430.97" gradientTransform="matrix(-1, 0, 0, 1, 588.86, 0)" gradientUnits="userSpaceOnUse"><stop offset="0" stop-color="#e39a65"/><stop offset="1" stop-color="#e95f8d"/></linearGradient><linearGradient id="Áåçûìÿííûé_ãðàäèåíò_33-2" x1="324.46" y1="386.27" x2="379.24" y2="386.27" xlink:href="#Áåçûìÿííûé_ãðàäèåíò_33"/><linearGradient id="Áåçûìÿííûé_ãðàäèåíò_33-3" x1="-36.77" y1="404.63" x2="18.01" y2="404.63" xlink:href="#Áåçûìÿííûé_ãðàäèåíò_33"/><linearGradient id="Áåçûìÿííûé_ãðàäèåíò_33-4" x1="27.01" y1="401.11" x2="319.37" y2="401.11" xlink:href="#Áåçûìÿííûé_ãðàäèåíò_33"/><radialGradient id="Áåçûìÿííûé_ãðàäèåíò_113" cx="188.5" cy="184.66" r="223.3" gradientTransform="matrix(-1, 0, 0, 1, 588.86, 0)" gradientUnits="userSpaceOnUse"><stop offset="0" stop-color="#e39a65"/><stop offset="0.47" stop-color="#a92ffb"/><stop offset="0.59" stop-color="#891cfb"/><stop offset="0.74" stop-color="#6507fa"/><stop offset="0.8" stop-color="#0d0c6f"/></radialGradient><radialGradient id="Áåçûìÿííûé_ãðàäèåíò_109" cx="51.92" cy="363.98" r="244.17" gradientTransform="matrix(-1, 0, 0, 1, 588.86, 0)" gradientUnits="userSpaceOnUse"><stop offset="0" stop-color="#e39a65"/><stop offset="0.47" stop-color="#a92ffb"/><stop offset="0.57" stop-color="#891cfb"/><stop offset="0.68" stop-color="#6507fa"/><stop offset="0.74" stop-color="#0d0c6f"/></radialGradient><radialGradient id="Áåçûìÿííûé_ãðàäèåíò_343" cx="74.38" cy="314.97" r="218.96" gradientTransform="matrix(-1, 0, 0, 1, 588.86, 0)" gradientUnits="userSpaceOnUse"><stop offset="0" stop-color="#e39a65"/><stop offset="0.47" stop-color="#a92ffb"/><stop offset="0.59" stop-color="#891cfb"/><stop offset="0.73" stop-color="#6507fa"/><stop offset="1" stop-color="#3919bb"/></radialGradient><radialGradient id="Áåçûìÿííûé_ãðàäèåíò_343-2" cx="128.93" cy="231.23" r="223.34" xlink:href="#Áåçûìÿííûé_ãðàäèåíò_343"/><linearGradient id="Áåçûìÿííûé_ãðàäèåíò_441" x1="153.48" y1="289.86" x2="332.44" y2="289.86" gradientTransform="matrix(-1, 0, 0, 1, 588.86, 0)" gradientUnits="userSpaceOnUse"><stop offset="0" stop-color="#3919bb"/><stop offset="1" stop-color="#6507fa"/></linearGradient><radialGradient id="Áåçûìÿííûé_ãðàäèåíò_343-3" cx="47.4" cy="183.54" r="347.85" xlink:href="#Áåçûìÿííûé_ãðàäèåíò_343"/><linearGradient id="Áåçûìÿííûé_ãðàäèåíò_33-5" x1="31.46" y1="314.34" x2="108.23" y2="314.34" xlink:href="#Áåçûìÿííûé_ãðàäèåíò_33"/><radialGradient id="Áåçûìÿííûé_ãðàäèåíò_199" cx="38.27" cy="251.72" r="165.35" gradientTransform="matrix(-1, 0, 0, 1, 588.86, 0)" gradientUnits="userSpaceOnUse"><stop offset="0" stop-color="#e39a65"/><stop offset="0.15" stop-color="#a92ffb"/><stop offset="0.41" stop-color="#3919bb"/><stop offset="0.93" stop-color="#3919bb"/></radialGradient><linearGradient id="Áåçûìÿííûé_ãðàäèåíò_144" x1="41.19" y1="231.23" x2="100.5" y2="231.23" gradientTransform="matrix(-1, 0, 0, 1, 588.86, 0)" gradientUnits="userSpaceOnUse"><stop offset="0" stop-color="#e39a65"/><stop offset="0.25" stop-color="#a92ffb"/><stop offset="0.56" stop-color="#3919bb"/></linearGradient><linearGradient id="Áåçûìÿííûé_ãðàäèåíò_483" x1="46.75" y1="228.22" x2="94.94" y2="228.22" gradientTransform="matrix(-1, 0, 0, 1, 401.72, -161.6)" gradientUnits="userSpaceOnUse"><stop offset="0" stop-color="#4f1fec"/><stop offset="1" stop-color="#a92ffb"/></linearGradient><linearGradient id="Áåçûìÿííûé_ãðàäèåíò_483-2" x1="45.61" y1="228.22" x2="93.79" y2="228.22" xlink:href="#Áåçûìÿííûé_ãðàäèåíò_483"/><linearGradient id="Áåçûìÿííûé_ãðàäèåíò_193" x1="46.76" y1="221.87" x2="107.51" y2="221.87" gradientTransform="matrix(-1, 0, 0, 1, 588.86, 0)" gradientUnits="userSpaceOnUse"><stop offset="0" stop-color="#131060"/><stop offset="0.19" stop-color="#141062"/><stop offset="0.28" stop-color="#19106a"/><stop offset="0.36" stop-color="#221078"/><stop offset="0.42" stop-color="#2e0f8b"/><stop offset="0.48" stop-color="#3e0fa3"/><stop offset="0.54" stop-color="#510ec2"/><stop offset="0.58" stop-color="#680de5"/><stop offset="0.61" stop-color="#740df8"/><stop offset="0.62" stop-color="#7a14f0"/><stop offset="0.68" stop-color="#9b3cc3"/><stop offset="0.75" stop-color="#b75d9d"/><stop offset="0.81" stop-color="#cc7680"/><stop offset="0.88" stop-color="#dc886c"/><stop offset="0.94" stop-color="#e5935f"/><stop offset="1" stop-color="#e8975b"/></linearGradient><radialGradient id="Áåçûìÿííûé_ãðàäèåíò_223" cx="33.79" cy="214.45" r="108.16" gradientTransform="matrix(-1, 0, 0, 1, 588.86, 0)" gradientUnits="userSpaceOnUse"><stop offset="0" stop-color="#e39a65"/><stop offset="0.25" stop-color="#a92ffb"/><stop offset="0.74" stop-color="#3919bb"/></radialGradient><linearGradient id="Áåçûìÿííûé_ãðàäèåíò_193-2" x1="67.03" y1="241.48" x2="75.44" y2="241.48" xlink:href="#Áåçûìÿííûé_ãðàäèåíò_193"/></defs><path class="cls-1" d="M200,439.62l-11.74-6.77a2.19,2.19,0,0,1,0-3.77L200,422.31a7,7,0,0,1,7,0l11.74,6.77a2.17,2.17,0,0,1,0,3.77l-11.74,6.77a7,7,0,0,1-7,0Zm.93-15.7-11.74,6.77a.32.32,0,0,0-.15.28.32.32,0,0,0,.15.27L200.89,438a5.1,5.1,0,0,0,5.1,0h0l11.74-6.77a.32.32,0,0,0,0-.55L206,423.92a5.12,5.12,0,0,0-5.1,0Z" transform="translate(-187.14 -161.6)"/><path class="cls-2" d="M231.35,400.59l-20.2-11.66a3.08,3.08,0,0,1,0-5.32L231.35,372a11.36,11.36,0,0,1,11.31,0l20.2,11.66a3.07,3.07,0,0,1,0,5.32l-20.2,11.66a11.34,11.34,0,0,1-11.31,0Zm30.58-13.27a1.19,1.19,0,0,0,.61-1.05,1.17,1.17,0,0,0-.61-1l-20.19-11.67a9.51,9.51,0,0,0-9.46,0l-20.2,11.67a1.18,1.18,0,0,0-.6,1,1.19,1.19,0,0,0,.6,1.05L232.28,399a9.49,9.49,0,0,0,9.45,0Z" transform="translate(-187.14 -161.6)"/><path class="cls-3" d="M592.58,419l-20.2-11.67a3.06,3.06,0,0,1,0-5.31l20.2-11.66a11.31,11.31,0,0,1,11.31,0L624.09,402a3.07,3.07,0,0,1,0,5.31L603.89,419a11.34,11.34,0,0,1-11.31,0Zm.93-27-20.2,11.66a1.19,1.19,0,0,0-.61,1.05,1.17,1.17,0,0,0,.61,1l20.2,11.66a9.44,9.44,0,0,0,9.45,0h0l20.19-11.66a1.17,1.17,0,0,0,.61-1,1.19,1.19,0,0,0-.6-1.05L603,391.92a9.49,9.49,0,0,0-9.45,0Z" transform="translate(-187.14 -161.6)"/><path class="cls-4" d="M393.69,471.33l144.43-83.39c2.1-1.21,1.84-3.34-.59-4.74l-92.7-53.52c-2.43-1.4-6.11-1.55-8.21-.34L292.19,412.73c-2.11,1.22-1.85,3.34.59,4.74L385.47,471C387.9,472.39,391.58,472.55,393.69,471.33Z" transform="translate(-187.14 -161.6)"/><path class="cls-5" d="M384.61,484.93,272.25,419.1c-1.76-1-2.76-2.43-2.76-3.87a3.69,3.69,0,0,1,2.09-3.16L436.41,316.9c2.7-1.56,7.23-1.39,10.31.4l112.37,65.83c1.75,1,2.76,2.42,2.76,3.87a3.68,3.68,0,0,1-2.09,3.15L394.92,485.32h0a9.26,9.26,0,0,1-4.54,1.06A11.85,11.85,0,0,1,384.61,484.93Zm52.73-166.42L272.51,413.68a2,2,0,0,0-1.16,1.55c0,.75.68,1.59,1.83,2.26l112.37,65.83c2.47,1.43,6.34,1.61,8.44.39h0l164.84-95.17A2,2,0,0,0,560,387c0-.75-.69-1.59-1.84-2.25L445.79,318.9a10,10,0,0,0-4.85-1.19A7.4,7.4,0,0,0,437.34,318.51Z" transform="translate(-187.14 -161.6)"/><path class="cls-6" d="M253.82,272.93l143.86-83.06a3.71,3.71,0,0,1,2.93-.42h0l2.66.92-.94.22a4.65,4.65,0,0,1,.88,1.65l32.54,105.63a6.39,6.39,0,0,1-2.64,7.11L289.27,388.05a4.29,4.29,0,0,1-1.06.43l.36.78-2.55-.9h0a4.07,4.07,0,0,1-2.32-2.69L251.18,280A6.36,6.36,0,0,1,253.82,272.93Z" transform="translate(-187.14 -161.6)"/><path class="cls-7" d="M294.42,392l-.05.06,142.09-82c2.1-1.2,5.75-1.05,8.16.34l91.81,53,3.06-1.17-.86,4.29h0a2.59,2.59,0,0,1-1.38,1.72L393.84,451c-2.09,1.21-5.74,1.05-8.16-.34l-92-53.14a3.67,3.67,0,0,1-1.95-2.27h0l-.88-4.18Z" transform="translate(-187.14 -161.6)"/><path class="cls-8" d="M393.69,447.22l144.43-83.39c2.1-1.21,1.84-3.34-.59-4.74l-92.7-53.52c-2.43-1.4-6.11-1.55-8.21-.34L292.19,388.62c-2.11,1.21-1.85,3.34.59,4.74l92.69,53.52C387.9,448.28,391.58,448.44,393.69,447.22Z" transform="translate(-187.14 -161.6)"/><path class="cls-9" d="M292.78,392.24l92.69,53.51c2.43,1.41,6.11,1.56,8.22.35l144.43-83.39a2.76,2.76,0,0,0,1.31-1.5,2.25,2.25,0,0,1-1.31,2.62L393.69,447.22c-2.11,1.22-5.79,1.06-8.22-.34l-92.69-53.52c-1.61-.92-2.25-2.16-1.91-3.24A3.86,3.86,0,0,0,292.78,392.24Z" transform="translate(-187.14 -161.6)"/><g class="cls-10"><path class="cls-11" d="M469.22,350.3l4.88-2.81c.39-.23.34-.63-.11-.89l-5.75-3.32a1.69,1.69,0,0,0-1.53-.06L461.83,346c-.39.23-.34.62.11.88l5.76,3.33A1.67,1.67,0,0,0,469.22,350.3Z" transform="translate(-187.14 -161.6)"/><path class="cls-11" d="M461.69,354.65l4.88-2.82c.39-.22.34-.62-.11-.88l-5.75-3.32a1.69,1.69,0,0,0-1.53-.06l-4.88,2.81c-.39.23-.34.62.11.88l5.76,3.33A1.7,1.7,0,0,0,461.69,354.65Z" transform="translate(-187.14 -161.6)"/><path class="cls-11" d="M454.16,359l4.88-2.82c.39-.23.34-.62-.11-.88L453.17,352a1.71,1.71,0,0,0-1.52-.07l-4.88,2.82c-.39.22-.34.62.11.88l5.76,3.32A1.71,1.71,0,0,0,454.16,359Z" transform="translate(-187.14 -161.6)"/><path class="cls-11" d="M443.75,355.41l4.88-2.82c.39-.23.34-.62-.11-.88l-4.84-2.79a1.67,1.67,0,0,0-1.52-.06l-4.88,2.81c-.39.23-.34.62.11.88l4.83,2.79A1.73,1.73,0,0,0,443.75,355.41Z" transform="translate(-187.14 -161.6)"/><path class="cls-11" d="M436.22,359.75l4.88-2.81c.39-.23.34-.62-.11-.88l-4.84-2.79a1.71,1.71,0,0,0-1.52-.07L429.75,356c-.39.22-.34.62.11.88l4.83,2.79A1.69,1.69,0,0,0,436.22,359.75Z" transform="translate(-187.14 -161.6)"/><path class="cls-11" d="M428.69,364.1l4.87-2.81c.4-.23.35-.63-.1-.89l-4.84-2.79a1.7,1.7,0,0,0-1.52-.06l-4.88,2.82c-.39.22-.34.62.11.88l4.83,2.79A1.69,1.69,0,0,0,428.69,364.1Z" transform="translate(-187.14 -161.6)"/><path class="cls-11" d="M421.16,368.45l4.87-2.82c.4-.22.35-.62-.11-.88L421.09,362a1.67,1.67,0,0,0-1.52-.06l-4.88,2.81c-.39.23-.34.62.11.89l4.83,2.79A1.72,1.72,0,0,0,421.16,368.45Z" transform="translate(-187.14 -161.6)"/><path class="cls-11" d="M413.63,372.8,418.5,370c.4-.23.35-.62-.11-.88l-4.83-2.79a1.67,1.67,0,0,0-1.52-.06l-4.88,2.81c-.39.23-.34.62.11.88l4.83,2.79A1.73,1.73,0,0,0,413.63,372.8Z" transform="translate(-187.14 -161.6)"/><path class="cls-11" d="M406.1,377.14l4.87-2.81c.4-.23.35-.62-.11-.88L406,370.66a1.71,1.71,0,0,0-1.52-.07l-4.88,2.82c-.39.23-.34.62.11.88l4.83,2.79A1.69,1.69,0,0,0,406.1,377.14Z" transform="translate(-187.14 -161.6)"/><path class="cls-11" d="M398.57,381.49l4.87-2.81c.4-.23.35-.62-.11-.89L398.5,375a1.7,1.7,0,0,0-1.52-.06l-4.88,2.82c-.39.22-.34.62.11.88l4.83,2.79A1.69,1.69,0,0,0,398.57,381.49Z" transform="translate(-187.14 -161.6)"/><path class="cls-11" d="M391,385.84l4.87-2.82c.39-.22.35-.62-.11-.88L391,379.35a1.69,1.69,0,0,0-1.53-.06l-4.87,2.81c-.39.23-.34.63.11.89l4.83,2.79A1.69,1.69,0,0,0,391,385.84Z" transform="translate(-187.14 -161.6)"/><path class="cls-11" d="M383.51,390.19l4.87-2.82c.39-.22.35-.62-.11-.88l-4.83-2.79a1.69,1.69,0,0,0-1.53-.06L377,386.45c-.39.23-.34.62.11.88l4.83,2.79A1.73,1.73,0,0,0,383.51,390.19Z" transform="translate(-187.14 -161.6)"/><path class="cls-11" d="M376,394.53l4.87-2.81c.39-.23.35-.62-.11-.88l-4.83-2.79a1.73,1.73,0,0,0-1.53-.07l-4.87,2.82c-.39.23-.34.62.11.88l4.83,2.79A1.69,1.69,0,0,0,376,394.53Z" transform="translate(-187.14 -161.6)"/><path class="cls-11" d="M432.65,353.35l4.88-2.82c.39-.22.34-.62-.11-.88l-4.83-2.79a1.69,1.69,0,0,0-1.53-.06l-4.87,2.81c-.4.23-.35.62.1.88l4.84,2.79A1.67,1.67,0,0,0,432.65,353.35Z" transform="translate(-187.14 -161.6)"/><path class="cls-11" d="M440.3,348.93l4.87-2.81c.39-.23.35-.62-.11-.88l-4.83-2.79a1.69,1.69,0,0,0-1.53-.06l-4.87,2.81c-.39.23-.34.62.11.88l4.83,2.79A1.69,1.69,0,0,0,440.3,348.93Z" transform="translate(-187.14 -161.6)"/><path class="cls-11" d="M448,344.52l10.5-6.07c.4-.22.35-.62-.11-.88l-4.83-2.79a1.67,1.67,0,0,0-1.52-.06l-10.51,6.06c-.39.23-.34.62.11.88l4.83,2.79A1.73,1.73,0,0,0,448,344.52Z" transform="translate(-187.14 -161.6)"/><path class="cls-11" d="M442.6,339.14l8.52-4.92c.39-.23.35-.62-.11-.88l-4.83-2.79a1.69,1.69,0,0,0-1.53-.06l-8.52,4.92c-.39.22-.34.62.11.88l4.83,2.79A1.69,1.69,0,0,0,442.6,339.14Z" transform="translate(-187.14 -161.6)"/><path class="cls-11" d="M425.12,357.7l4.88-2.82c.39-.23.34-.62-.11-.88l-4.83-2.79a1.69,1.69,0,0,0-1.53-.06L418.65,354c-.39.23-.34.62.11.88l4.84,2.79A1.71,1.71,0,0,0,425.12,357.7Z" transform="translate(-187.14 -161.6)"/><path class="cls-11" d="M417.59,362l4.88-2.81c.39-.23.34-.62-.11-.88l-4.83-2.79a1.73,1.73,0,0,0-1.53-.07l-4.88,2.82c-.39.22-.34.62.11.88l4.84,2.79A1.67,1.67,0,0,0,417.59,362Z" transform="translate(-187.14 -161.6)"/><path class="cls-11" d="M410.06,366.39l4.88-2.81c.39-.23.34-.63-.11-.89L410,359.9a1.69,1.69,0,0,0-1.53-.06l-4.88,2.82c-.39.22-.34.62.11.88l4.84,2.79A1.67,1.67,0,0,0,410.06,366.39Z" transform="translate(-187.14 -161.6)"/><path class="cls-11" d="M402.53,370.74l4.88-2.82c.39-.22.34-.62-.11-.88l-4.83-2.79a1.69,1.69,0,0,0-1.53-.06L396.06,367c-.39.23-.34.62.11.89l4.84,2.78A1.67,1.67,0,0,0,402.53,370.74Z" transform="translate(-187.14 -161.6)"/><path class="cls-11" d="M395,375.09l4.88-2.82c.39-.23.34-.62-.11-.88l-4.83-2.79a1.69,1.69,0,0,0-1.53-.06l-4.88,2.81c-.39.23-.34.62.11.88l4.84,2.79A1.71,1.71,0,0,0,395,375.09Z" transform="translate(-187.14 -161.6)"/><path class="cls-11" d="M387.47,379.43l4.88-2.81c.39-.23.34-.62-.11-.88L387.41,373a1.73,1.73,0,0,0-1.53-.07L381,375.7c-.39.22-.34.62.11.88l4.83,2.79A1.69,1.69,0,0,0,387.47,379.43Z" transform="translate(-187.14 -161.6)"/><path class="cls-11" d="M379.94,383.78l4.88-2.81c.39-.23.34-.63-.11-.89l-4.83-2.79a1.69,1.69,0,0,0-1.53-.06l-4.88,2.82c-.39.22-.34.62.11.88l4.83,2.79A1.69,1.69,0,0,0,379.94,383.78Z" transform="translate(-187.14 -161.6)"/><path class="cls-11" d="M372.41,388.13l4.88-2.82c.39-.22.34-.62-.11-.88l-4.83-2.79a1.69,1.69,0,0,0-1.53-.06l-4.88,2.81c-.39.23-.34.62.11.89l4.83,2.78A1.7,1.7,0,0,0,372.41,388.13Z" transform="translate(-187.14 -161.6)"/><path class="cls-11" d="M364.88,392.48l4.88-2.82c.39-.23.34-.62-.11-.88L364.82,386a1.69,1.69,0,0,0-1.53-.06l-4.88,2.81c-.39.23-.34.62.11.88l4.83,2.79A1.73,1.73,0,0,0,364.88,392.48Z" transform="translate(-187.14 -161.6)"/><path class="cls-11" d="M351.49,400.2l10.64-6.14c.4-.22.35-.62-.11-.88l-4.83-2.79a1.67,1.67,0,0,0-1.52-.06L345,396.47c-.4.23-.35.62.11.88l4.83,2.79A1.67,1.67,0,0,0,351.49,400.2Z" transform="translate(-187.14 -161.6)"/><path class="cls-11" d="M336.83,391.74l9-5.18c.4-.23.35-.62-.11-.89l-4.83-2.79a1.7,1.7,0,0,0-1.52-.06l-9,5.19c-.4.22-.35.62.1.88l4.84,2.79A1.67,1.67,0,0,0,336.83,391.74Z" transform="translate(-187.14 -161.6)"/><path class="cls-11" d="M411.94,356.84l4.87-2.81c.39-.23.35-.62-.11-.88l-4.83-2.79a1.73,1.73,0,0,0-1.53-.07l-4.87,2.82c-.39.23-.34.62.11.88l4.83,2.79A1.69,1.69,0,0,0,411.94,356.84Z" transform="translate(-187.14 -161.6)"/><path class="cls-11" d="M419.65,352.39l4.88-2.82c.39-.22.34-.62-.11-.88l-4.83-2.79a1.69,1.69,0,0,0-1.53-.06l-4.87,2.81c-.4.23-.35.62.11.89l4.83,2.79A1.7,1.7,0,0,0,419.65,352.39Z" transform="translate(-187.14 -161.6)"/><path class="cls-11" d="M427.37,347.93l4.88-2.81c.39-.23.34-.62-.11-.88l-4.83-2.79a1.73,1.73,0,0,0-1.53-.07l-4.88,2.82c-.39.22-.34.62.11.88l4.83,2.79A1.69,1.69,0,0,0,427.37,347.93Z" transform="translate(-187.14 -161.6)"/><path class="cls-11" d="M435.09,343.48l4.88-2.82c.39-.22.34-.62-.11-.88L435,337a1.67,1.67,0,0,0-1.52-.06l-4.88,2.81c-.39.23-.34.62.11.88l4.83,2.79A1.73,1.73,0,0,0,435.09,343.48Z" transform="translate(-187.14 -161.6)"/><path class="cls-11" d="M404.41,361.19l4.87-2.81c.39-.23.34-.62-.11-.89l-4.83-2.78a1.69,1.69,0,0,0-1.53-.07l-4.87,2.82c-.39.22-.34.62.11.88l4.83,2.79A1.69,1.69,0,0,0,404.41,361.19Z" transform="translate(-187.14 -161.6)"/><path class="cls-11" d="M396.88,365.54l4.87-2.82c.39-.22.34-.62-.11-.88l-4.83-2.79a1.69,1.69,0,0,0-1.53-.06l-4.87,2.81c-.39.23-.35.63.11.89l4.83,2.79A1.69,1.69,0,0,0,396.88,365.54Z" transform="translate(-187.14 -161.6)"/><path class="cls-11" d="M389.35,369.89l4.87-2.82c.39-.22.34-.62-.11-.88l-4.83-2.79a1.69,1.69,0,0,0-1.53-.06l-4.87,2.81c-.39.23-.35.62.11.88l4.83,2.79A1.73,1.73,0,0,0,389.35,369.89Z" transform="translate(-187.14 -161.6)"/><path class="cls-11" d="M381.82,374.23l4.87-2.81c.39-.23.34-.62-.11-.88l-4.83-2.79a1.73,1.73,0,0,0-1.53-.07l-4.87,2.82c-.39.23-.35.62.11.88l4.83,2.79A1.69,1.69,0,0,0,381.82,374.23Z" transform="translate(-187.14 -161.6)"/><path class="cls-11" d="M374.29,378.58l4.87-2.81c.39-.23.34-.62-.11-.88l-4.83-2.79a1.7,1.7,0,0,0-1.53-.07l-4.87,2.82c-.4.22-.35.62.11.88l4.83,2.79A1.69,1.69,0,0,0,374.29,378.58Z" transform="translate(-187.14 -161.6)"/><path class="cls-11" d="M366.75,382.93l4.88-2.82c.39-.22.34-.62-.11-.88l-4.83-2.79a1.69,1.69,0,0,0-1.53-.06l-4.87,2.82c-.4.22-.35.62.11.88l4.83,2.79A1.67,1.67,0,0,0,366.75,382.93Z" transform="translate(-187.14 -161.6)"/><path class="cls-11" d="M359.22,387.28l4.88-2.82c.39-.22.34-.62-.11-.88l-4.83-2.79a1.69,1.69,0,0,0-1.53-.06l-4.87,2.81c-.4.23-.35.62.11.88l4.83,2.79A1.67,1.67,0,0,0,359.22,387.28Z" transform="translate(-187.14 -161.6)"/><path class="cls-11" d="M351.69,391.63l4.88-2.82c.39-.23.34-.62-.11-.88l-4.83-2.79a1.69,1.69,0,0,0-1.53-.06l-4.87,2.81c-.4.23-.35.62.11.88l4.83,2.79A1.71,1.71,0,0,0,351.69,391.63Z" transform="translate(-187.14 -161.6)"/><path class="cls-11" d="M344.16,396l4.88-2.81c.39-.23.34-.62-.11-.88l-4.83-2.79a1.73,1.73,0,0,0-1.53-.07l-4.87,2.82c-.4.22-.35.62.11.88l4.83,2.79A1.67,1.67,0,0,0,344.16,396Z" transform="translate(-187.14 -161.6)"/><path class="cls-11" d="M415.9,346.09l4.88-2.81c.39-.23.34-.63-.11-.89l-4.83-2.79a1.69,1.69,0,0,0-1.53-.06l-4.88,2.82c-.39.22-.34.62.11.88l4.83,2.79A1.69,1.69,0,0,0,415.9,346.09Z" transform="translate(-187.14 -161.6)"/><path class="cls-11" d="M423.39,341.76l4.88-2.81c.39-.23.34-.62-.11-.88l-4.83-2.79a1.69,1.69,0,0,0-1.53-.06L416.93,338c-.4.23-.35.62.11.88l4.83,2.79A1.67,1.67,0,0,0,423.39,341.76Z" transform="translate(-187.14 -161.6)"/><path class="cls-11" d="M430.89,337.44l4.87-2.82c.39-.22.35-.62-.11-.88L430.82,331a1.69,1.69,0,0,0-1.53-.06l-4.87,2.81c-.39.23-.34.63.11.89l4.83,2.79A1.69,1.69,0,0,0,430.89,337.44Z" transform="translate(-187.14 -161.6)"/><path class="cls-11" d="M438.38,333.11l4.88-2.81c.39-.23.34-.62-.11-.88l-4.83-2.79a1.73,1.73,0,0,0-1.53-.07l-4.88,2.82c-.39.22-.34.62.11.88l4.83,2.79A1.69,1.69,0,0,0,438.38,333.11Z" transform="translate(-187.14 -161.6)"/><path class="cls-11" d="M430.68,328.66l4.87-2.81c.39-.23.34-.62-.11-.88l-1.6-.92a1.67,1.67,0,0,0-1.52-.07l-4.88,2.82c-.39.22-.34.62.11.88l1.6.92A1.69,1.69,0,0,0,430.68,328.66Z" transform="translate(-187.14 -161.6)"/><path class="cls-11" d="M420.9,334.31l4.87-2.82c.39-.22.35-.62-.11-.88l-1.59-.92a1.69,1.69,0,0,0-1.53-.06l-4.88,2.81c-.39.23-.34.62.11.88l1.6.93A1.69,1.69,0,0,0,420.9,334.31Z" transform="translate(-187.14 -161.6)"/><path class="cls-11" d="M413.44,338.62l4.87-2.82c.39-.22.34-.62-.11-.88l-1.6-.92a1.67,1.67,0,0,0-1.52-.06l-4.88,2.81c-.39.23-.34.62.11.88l1.6.92A1.69,1.69,0,0,0,413.44,338.62Z" transform="translate(-187.14 -161.6)"/><path class="cls-11" d="M406,342.93l4.88-2.82c.39-.23.34-.62-.11-.88l-1.6-.92a1.71,1.71,0,0,0-1.52-.07l-4.88,2.82c-.39.22-.34.62.11.88l1.6.92A1.71,1.71,0,0,0,406,342.93Z" transform="translate(-187.14 -161.6)"/><path class="cls-11" d="M398.51,347.23l4.88-2.81c.39-.23.34-.62-.11-.88l-1.6-.93a1.72,1.72,0,0,0-1.53-.06l-4.87,2.82c-.39.22-.34.62.11.88l1.59.92A1.69,1.69,0,0,0,398.51,347.23Z" transform="translate(-187.14 -161.6)"/><path class="cls-11" d="M356.86,371.28l4.87-2.81c.39-.23.34-.62-.11-.88l-1.6-.92a1.67,1.67,0,0,0-1.52-.07l-4.88,2.82c-.39.22-.34.62.11.88l1.6.92A1.69,1.69,0,0,0,356.86,371.28Z" transform="translate(-187.14 -161.6)"/><path class="cls-11" d="M349.39,375.59l4.88-2.81c.39-.23.34-.62-.11-.88l-1.6-.93a1.67,1.67,0,0,0-1.52-.06l-4.88,2.82c-.39.22-.34.62.11.88l1.6.92A1.67,1.67,0,0,0,349.39,375.59Z" transform="translate(-187.14 -161.6)"/><path class="cls-11" d="M341.93,379.9l4.88-2.81c.39-.23.34-.63-.11-.89l-1.6-.92a1.69,1.69,0,0,0-1.53-.06L338.7,378c-.39.23-.34.62.11.88l1.59.93A1.69,1.69,0,0,0,341.93,379.9Z" transform="translate(-187.14 -161.6)"/><path class="cls-11" d="M334.47,384.21l4.88-2.82c.39-.22.34-.62-.11-.88l-1.6-.92a1.69,1.69,0,0,0-1.53-.06l-4.87,2.81c-.4.23-.35.62.11.88l1.59.92A1.7,1.7,0,0,0,334.47,384.21Z" transform="translate(-187.14 -161.6)"/><path class="cls-11" d="M408.37,350.44l4.88-2.82c.39-.22.34-.62-.11-.88L408.31,344a1.69,1.69,0,0,0-1.53-.06l-4.88,2.81c-.39.23-.34.62.11.89l4.83,2.79A1.73,1.73,0,0,0,408.37,350.44Z" transform="translate(-187.14 -161.6)"/><path class="cls-11" d="M400.84,354.79l4.88-2.82c.39-.23.34-.62-.11-.88l-4.83-2.79a1.69,1.69,0,0,0-1.53-.06l-4.88,2.81c-.39.23-.34.62.11.88l4.83,2.79A1.73,1.73,0,0,0,400.84,354.79Z" transform="translate(-187.14 -161.6)"/><path class="cls-11" d="M393.31,359.13l4.88-2.81c.39-.23.34-.62-.11-.88l-4.83-2.79a1.73,1.73,0,0,0-1.53-.07l-4.88,2.82c-.39.23-.34.62.11.88l4.83,2.79A1.69,1.69,0,0,0,393.31,359.13Z" transform="translate(-187.14 -161.6)"/><path class="cls-11" d="M385.78,363.48l4.88-2.81c.39-.23.34-.62-.11-.89L385.72,357a1.73,1.73,0,0,0-1.53-.06l-4.88,2.82c-.39.22-.34.62.11.88l4.83,2.79A1.69,1.69,0,0,0,385.78,363.48Z" transform="translate(-187.14 -161.6)"/><path class="cls-11" d="M378.25,367.83l4.88-2.82c.39-.22.34-.62-.11-.88l-4.83-2.79a1.69,1.69,0,0,0-1.53-.06l-4.88,2.81c-.39.23-.34.63.11.89l4.83,2.79A1.72,1.72,0,0,0,378.25,367.83Z" transform="translate(-187.14 -161.6)"/><path class="cls-11" d="M370.72,372.18l4.88-2.82c.39-.22.34-.62-.11-.88l-4.84-2.79a1.67,1.67,0,0,0-1.52-.06l-4.88,2.81c-.39.23-.34.62.11.88l4.83,2.79A1.73,1.73,0,0,0,370.72,372.18Z" transform="translate(-187.14 -161.6)"/><path class="cls-11" d="M363.19,376.52l4.88-2.81c.39-.23.34-.62-.11-.88L363.12,370a1.71,1.71,0,0,0-1.52-.07l-4.88,2.82c-.39.23-.34.62.11.88l4.83,2.79A1.69,1.69,0,0,0,363.19,376.52Z" transform="translate(-187.14 -161.6)"/><path class="cls-11" d="M355.66,380.87l4.88-2.81c.39-.23.34-.62-.11-.89l-4.84-2.78a1.67,1.67,0,0,0-1.52-.07l-4.88,2.82c-.39.22-.34.62.11.88l4.83,2.79A1.69,1.69,0,0,0,355.66,380.87Z" transform="translate(-187.14 -161.6)"/><path class="cls-11" d="M348.13,385.22,353,382.4c.39-.22.34-.62-.11-.88l-4.84-2.79a1.67,1.67,0,0,0-1.52-.06l-4.88,2.81c-.39.23-.34.63.11.89l4.83,2.79A1.69,1.69,0,0,0,348.13,385.22Z" transform="translate(-187.14 -161.6)"/><path class="cls-11" d="M451.42,351l14.36-8.3c.4-.22.35-.62-.11-.88L460.84,339a1.67,1.67,0,0,0-1.52-.06L445,347.24c-.39.23-.34.62.11.88l4.84,2.79A1.71,1.71,0,0,0,451.42,351Z" transform="translate(-187.14 -161.6)"/><path class="cls-11" d="M358.91,404.39l14.36-8.29c.39-.23.35-.63-.11-.89l-4.83-2.79a1.69,1.69,0,0,0-1.53-.06l-14.36,8.29c-.39.23-.34.62.11.88l4.83,2.79A1.73,1.73,0,0,0,358.91,404.39Z" transform="translate(-187.14 -161.6)"/><path class="cls-11" d="M389,396.6l4.87-2.81c.39-.23.35-.62-.11-.88L388,389.58a1.69,1.69,0,0,0-1.53-.06l-4.88,2.82c-.39.22-.34.62.11.88l5.76,3.32A1.69,1.69,0,0,0,389,396.6Z" transform="translate(-187.14 -161.6)"/><path class="cls-11" d="M443.71,365l7.8-4.5c.39-.23.34-.62-.11-.88l-5.76-3.33a1.67,1.67,0,0,0-1.52-.06l-7.8,4.5c-.39.23-.34.62.11.88l5.75,3.33A1.69,1.69,0,0,0,443.71,365Z" transform="translate(-187.14 -161.6)"/><path class="cls-11" d="M396.28,392.41l7.8-4.5c.39-.22.34-.62-.11-.88l-5.75-3.32a1.73,1.73,0,0,0-1.53-.07l-7.8,4.51c-.39.22-.34.62.11.88l5.75,3.32A1.69,1.69,0,0,0,396.28,392.41Z" transform="translate(-187.14 -161.6)"/><path class="cls-11" d="M432.85,371.3l7.8-4.5c.39-.22.34-.62-.11-.88l-5.76-3.32a1.73,1.73,0,0,0-1.53-.07l-7.8,4.51c-.39.22-.34.62.11.88l5.76,3.32A1.69,1.69,0,0,0,432.85,371.3Z" transform="translate(-187.14 -161.6)"/><path class="cls-11" d="M433.2,362.56l-33.91,19.58a.46.46,0,0,0,0,.88l5.87,3.39a1.72,1.72,0,0,0,1.53,0l33.9-19.58Z" transform="translate(-187.14 -161.6)"/><path class="cls-11" d="M368,404.49l-5.43,3.13c-.32.19-.28.51.09.72L365,409.7a1.41,1.41,0,0,0,1.26.06l5.43-3.14c.32-.19.28-.51-.09-.72l-2.36-1.36A1.35,1.35,0,0,0,368,404.49Z" transform="translate(-187.14 -161.6)"/><path class="cls-11" d="M375.57,400.1l-5.43,3.14c-.32.18-.28.51.09.72l2.36,1.36a1.38,1.38,0,0,0,1.25.05l5.43-3.13c.32-.19.28-.51-.09-.73l-2.35-1.36A1.44,1.44,0,0,0,375.57,400.1Z" transform="translate(-187.14 -161.6)"/><path class="cls-11" d="M383.1,395.75l-5.43,3.14c-.32.19-.28.51.09.72l2.36,1.36a1.35,1.35,0,0,0,1.25,0l5.43-3.13c.32-.19.28-.51-.09-.72l-2.35-1.36A1.41,1.41,0,0,0,383.1,395.75Z" transform="translate(-187.14 -161.6)"/><path class="cls-11" d="M371.41,397.7,366,400.84c-.32.18-.28.51.09.72l2.36,1.36a1.38,1.38,0,0,0,1.25.05l5.43-3.13c.32-.19.28-.51-.09-.73l-2.35-1.36A1.44,1.44,0,0,0,371.41,397.7Z" transform="translate(-187.14 -161.6)"/></g><g class="cls-10"><path class="cls-11" d="M469.22,350.3l4.88-2.81c.39-.23.34-.63-.11-.89l-5.75-3.32a1.69,1.69,0,0,0-1.53-.06L461.83,346c-.39.23-.34.62.11.88l5.76,3.33A1.67,1.67,0,0,0,469.22,350.3Z" transform="translate(-187.14 -161.6)"/><path class="cls-11" d="M461.69,354.65l4.88-2.82c.39-.22.34-.62-.11-.88l-5.75-3.32a1.69,1.69,0,0,0-1.53-.06l-4.88,2.81c-.39.23-.34.62.11.88l5.76,3.33A1.7,1.7,0,0,0,461.69,354.65Z" transform="translate(-187.14 -161.6)"/><path class="cls-11" d="M454.16,359l4.88-2.82c.39-.23.34-.62-.11-.88L453.17,352a1.71,1.71,0,0,0-1.52-.07l-4.88,2.82c-.39.22-.34.62.11.88l5.76,3.32A1.71,1.71,0,0,0,454.16,359Z" transform="translate(-187.14 -161.6)"/><path class="cls-11" d="M443.75,355.41l4.88-2.82c.39-.23.34-.62-.11-.88l-4.84-2.79a1.67,1.67,0,0,0-1.52-.06l-4.88,2.81c-.39.23-.34.62.11.88l4.83,2.79A1.73,1.73,0,0,0,443.75,355.41Z" transform="translate(-187.14 -161.6)"/><path class="cls-11" d="M436.22,359.75l4.88-2.81c.39-.23.34-.62-.11-.88l-4.84-2.79a1.71,1.71,0,0,0-1.52-.07L429.75,356c-.39.22-.34.62.11.88l4.83,2.79A1.69,1.69,0,0,0,436.22,359.75Z" transform="translate(-187.14 -161.6)"/><path class="cls-11" d="M428.69,364.1l4.87-2.81c.4-.23.35-.63-.1-.89l-4.84-2.79a1.7,1.7,0,0,0-1.52-.06l-4.88,2.82c-.39.22-.34.62.11.88l4.83,2.79A1.69,1.69,0,0,0,428.69,364.1Z" transform="translate(-187.14 -161.6)"/><path class="cls-11" d="M421.16,368.45l4.87-2.82c.4-.22.35-.62-.11-.88L421.09,362a1.67,1.67,0,0,0-1.52-.06l-4.88,2.81c-.39.23-.34.62.11.89l4.83,2.79A1.72,1.72,0,0,0,421.16,368.45Z" transform="translate(-187.14 -161.6)"/><path class="cls-11" d="M413.63,372.8,418.5,370c.4-.23.35-.62-.11-.88l-4.83-2.79a1.67,1.67,0,0,0-1.52-.06l-4.88,2.81c-.39.23-.34.62.11.88l4.83,2.79A1.73,1.73,0,0,0,413.63,372.8Z" transform="translate(-187.14 -161.6)"/><path class="cls-11" d="M406.1,377.14l4.87-2.81c.4-.23.35-.62-.11-.88L406,370.66a1.71,1.71,0,0,0-1.52-.07l-4.88,2.82c-.39.23-.34.62.11.88l4.83,2.79A1.69,1.69,0,0,0,406.1,377.14Z" transform="translate(-187.14 -161.6)"/><path class="cls-11" d="M398.57,381.49l4.87-2.81c.4-.23.35-.62-.11-.89L398.5,375a1.7,1.7,0,0,0-1.52-.06l-4.88,2.82c-.39.22-.34.62.11.88l4.83,2.79A1.69,1.69,0,0,0,398.57,381.49Z" transform="translate(-187.14 -161.6)"/><path class="cls-11" d="M391,385.84l4.87-2.82c.39-.22.35-.62-.11-.88L391,379.35a1.69,1.69,0,0,0-1.53-.06l-4.87,2.81c-.39.23-.34.63.11.89l4.83,2.79A1.69,1.69,0,0,0,391,385.84Z" transform="translate(-187.14 -161.6)"/><path class="cls-11" d="M383.51,390.19l4.87-2.82c.39-.22.35-.62-.11-.88l-4.83-2.79a1.69,1.69,0,0,0-1.53-.06L377,386.45c-.39.23-.34.62.11.88l4.83,2.79A1.73,1.73,0,0,0,383.51,390.19Z" transform="translate(-187.14 -161.6)"/><path class="cls-11" d="M376,394.53l4.87-2.81c.39-.23.35-.62-.11-.88l-4.83-2.79a1.73,1.73,0,0,0-1.53-.07l-4.87,2.82c-.39.23-.34.62.11.88l4.83,2.79A1.69,1.69,0,0,0,376,394.53Z" transform="translate(-187.14 -161.6)"/><path class="cls-11" d="M432.65,353.35l4.88-2.82c.39-.22.34-.62-.11-.88l-4.83-2.79a1.69,1.69,0,0,0-1.53-.06l-4.87,2.81c-.4.23-.35.62.1.88l4.84,2.79A1.67,1.67,0,0,0,432.65,353.35Z" transform="translate(-187.14 -161.6)"/><path class="cls-11" d="M440.3,348.93l4.87-2.81c.39-.23.35-.62-.11-.88l-4.83-2.79a1.69,1.69,0,0,0-1.53-.06l-4.87,2.81c-.39.23-.34.62.11.88l4.83,2.79A1.69,1.69,0,0,0,440.3,348.93Z" transform="translate(-187.14 -161.6)"/><path class="cls-11" d="M448,344.52l10.5-6.07c.4-.22.35-.62-.11-.88l-4.83-2.79a1.67,1.67,0,0,0-1.52-.06l-10.51,6.06c-.39.23-.34.62.11.88l4.83,2.79A1.73,1.73,0,0,0,448,344.52Z" transform="translate(-187.14 -161.6)"/><path class="cls-11" d="M442.6,339.14l8.52-4.92c.39-.23.35-.62-.11-.88l-4.83-2.79a1.69,1.69,0,0,0-1.53-.06l-8.52,4.92c-.39.22-.34.62.11.88l4.83,2.79A1.69,1.69,0,0,0,442.6,339.14Z" transform="translate(-187.14 -161.6)"/><path class="cls-11" d="M425.12,357.7l4.88-2.82c.39-.23.34-.62-.11-.88l-4.83-2.79a1.69,1.69,0,0,0-1.53-.06L418.65,354c-.39.23-.34.62.11.88l4.84,2.79A1.71,1.71,0,0,0,425.12,357.7Z" transform="translate(-187.14 -161.6)"/><path class="cls-11" d="M417.59,362l4.88-2.81c.39-.23.34-.62-.11-.88l-4.83-2.79a1.73,1.73,0,0,0-1.53-.07l-4.88,2.82c-.39.22-.34.62.11.88l4.84,2.79A1.67,1.67,0,0,0,417.59,362Z" transform="translate(-187.14 -161.6)"/><path class="cls-11" d="M410.06,366.39l4.88-2.81c.39-.23.34-.63-.11-.89L410,359.9a1.69,1.69,0,0,0-1.53-.06l-4.88,2.82c-.39.22-.34.62.11.88l4.84,2.79A1.67,1.67,0,0,0,410.06,366.39Z" transform="translate(-187.14 -161.6)"/><path class="cls-11" d="M402.53,370.74l4.88-2.82c.39-.22.34-.62-.11-.88l-4.83-2.79a1.69,1.69,0,0,0-1.53-.06L396.06,367c-.39.23-.34.62.11.89l4.84,2.78A1.67,1.67,0,0,0,402.53,370.74Z" transform="translate(-187.14 -161.6)"/><path class="cls-11" d="M395,375.09l4.88-2.82c.39-.23.34-.62-.11-.88l-4.83-2.79a1.69,1.69,0,0,0-1.53-.06l-4.88,2.81c-.39.23-.34.62.11.88l4.84,2.79A1.71,1.71,0,0,0,395,375.09Z" transform="translate(-187.14 -161.6)"/><path class="cls-11" d="M387.47,379.43l4.88-2.81c.39-.23.34-.62-.11-.88L387.41,373a1.73,1.73,0,0,0-1.53-.07L381,375.7c-.39.22-.34.62.11.88l4.83,2.79A1.69,1.69,0,0,0,387.47,379.43Z" transform="translate(-187.14 -161.6)"/><path class="cls-11" d="M379.94,383.78l4.88-2.81c.39-.23.34-.63-.11-.89l-4.83-2.79a1.69,1.69,0,0,0-1.53-.06l-4.88,2.82c-.39.22-.34.62.11.88l4.83,2.79A1.69,1.69,0,0,0,379.94,383.78Z" transform="translate(-187.14 -161.6)"/><path class="cls-11" d="M372.41,388.13l4.88-2.82c.39-.22.34-.62-.11-.88l-4.83-2.79a1.69,1.69,0,0,0-1.53-.06l-4.88,2.81c-.39.23-.34.62.11.89l4.83,2.78A1.7,1.7,0,0,0,372.41,388.13Z" transform="translate(-187.14 -161.6)"/><path class="cls-11" d="M364.88,392.48l4.88-2.82c.39-.23.34-.62-.11-.88L364.82,386a1.69,1.69,0,0,0-1.53-.06l-4.88,2.81c-.39.23-.34.62.11.88l4.83,2.79A1.73,1.73,0,0,0,364.88,392.48Z" transform="translate(-187.14 -161.6)"/><path class="cls-11" d="M351.49,400.2l10.64-6.14c.4-.22.35-.62-.11-.88l-4.83-2.79a1.67,1.67,0,0,0-1.52-.06L345,396.47c-.4.23-.35.62.11.88l4.83,2.79A1.67,1.67,0,0,0,351.49,400.2Z" transform="translate(-187.14 -161.6)"/><path class="cls-11" d="M336.83,391.74l9-5.18c.4-.23.35-.62-.11-.89l-4.83-2.79a1.7,1.7,0,0,0-1.52-.06l-9,5.19c-.4.22-.35.62.1.88l4.84,2.79A1.67,1.67,0,0,0,336.83,391.74Z" transform="translate(-187.14 -161.6)"/><path class="cls-11" d="M411.94,356.84l4.87-2.81c.39-.23.35-.62-.11-.88l-4.83-2.79a1.73,1.73,0,0,0-1.53-.07l-4.87,2.82c-.39.23-.34.62.11.88l4.83,2.79A1.69,1.69,0,0,0,411.94,356.84Z" transform="translate(-187.14 -161.6)"/><path class="cls-11" d="M419.65,352.39l4.88-2.82c.39-.22.34-.62-.11-.88l-4.83-2.79a1.69,1.69,0,0,0-1.53-.06l-4.87,2.81c-.4.23-.35.62.11.89l4.83,2.79A1.7,1.7,0,0,0,419.65,352.39Z" transform="translate(-187.14 -161.6)"/><path class="cls-11" d="M427.37,347.93l4.88-2.81c.39-.23.34-.62-.11-.88l-4.83-2.79a1.73,1.73,0,0,0-1.53-.07l-4.88,2.82c-.39.22-.34.62.11.88l4.83,2.79A1.69,1.69,0,0,0,427.37,347.93Z" transform="translate(-187.14 -161.6)"/><path class="cls-11" d="M435.09,343.48l4.88-2.82c.39-.22.34-.62-.11-.88L435,337a1.67,1.67,0,0,0-1.52-.06l-4.88,2.81c-.39.23-.34.62.11.88l4.83,2.79A1.73,1.73,0,0,0,435.09,343.48Z" transform="translate(-187.14 -161.6)"/><path class="cls-11" d="M404.41,361.19l4.87-2.81c.39-.23.34-.62-.11-.89l-4.83-2.78a1.69,1.69,0,0,0-1.53-.07l-4.87,2.82c-.39.22-.34.62.11.88l4.83,2.79A1.69,1.69,0,0,0,404.41,361.19Z" transform="translate(-187.14 -161.6)"/><path class="cls-11" d="M396.88,365.54l4.87-2.82c.39-.22.34-.62-.11-.88l-4.83-2.79a1.69,1.69,0,0,0-1.53-.06l-4.87,2.81c-.39.23-.35.63.11.89l4.83,2.79A1.69,1.69,0,0,0,396.88,365.54Z" transform="translate(-187.14 -161.6)"/><path class="cls-11" d="M389.35,369.89l4.87-2.82c.39-.22.34-.62-.11-.88l-4.83-2.79a1.69,1.69,0,0,0-1.53-.06l-4.87,2.81c-.39.23-.35.62.11.88l4.83,2.79A1.73,1.73,0,0,0,389.35,369.89Z" transform="translate(-187.14 -161.6)"/><path class="cls-11" d="M381.82,374.23l4.87-2.81c.39-.23.34-.62-.11-.88l-4.83-2.79a1.73,1.73,0,0,0-1.53-.07l-4.87,2.82c-.39.23-.35.62.11.88l4.83,2.79A1.69,1.69,0,0,0,381.82,374.23Z" transform="translate(-187.14 -161.6)"/><path class="cls-11" d="M374.29,378.58l4.87-2.81c.39-.23.34-.62-.11-.88l-4.83-2.79a1.7,1.7,0,0,0-1.53-.07l-4.87,2.82c-.4.22-.35.62.11.88l4.83,2.79A1.69,1.69,0,0,0,374.29,378.58Z" transform="translate(-187.14 -161.6)"/><path class="cls-11" d="M366.75,382.93l4.88-2.82c.39-.22.34-.62-.11-.88l-4.83-2.79a1.69,1.69,0,0,0-1.53-.06l-4.87,2.82c-.4.22-.35.62.11.88l4.83,2.79A1.67,1.67,0,0,0,366.75,382.93Z" transform="translate(-187.14 -161.6)"/><path class="cls-11" d="M359.22,387.28l4.88-2.82c.39-.22.34-.62-.11-.88l-4.83-2.79a1.69,1.69,0,0,0-1.53-.06l-4.87,2.81c-.4.23-.35.62.11.88l4.83,2.79A1.67,1.67,0,0,0,359.22,387.28Z" transform="translate(-187.14 -161.6)"/><path class="cls-11" d="M351.69,391.63l4.88-2.82c.39-.23.34-.62-.11-.88l-4.83-2.79a1.69,1.69,0,0,0-1.53-.06l-4.87,2.81c-.4.23-.35.62.11.88l4.83,2.79A1.71,1.71,0,0,0,351.69,391.63Z" transform="translate(-187.14 -161.6)"/><path class="cls-11" d="M344.16,396l4.88-2.81c.39-.23.34-.62-.11-.88l-4.83-2.79a1.73,1.73,0,0,0-1.53-.07l-4.87,2.82c-.4.22-.35.62.11.88l4.83,2.79A1.67,1.67,0,0,0,344.16,396Z" transform="translate(-187.14 -161.6)"/><path class="cls-11" d="M415.9,346.09l4.88-2.81c.39-.23.34-.63-.11-.89l-4.83-2.79a1.69,1.69,0,0,0-1.53-.06l-4.88,2.82c-.39.22-.34.62.11.88l4.83,2.79A1.69,1.69,0,0,0,415.9,346.09Z" transform="translate(-187.14 -161.6)"/><path class="cls-11" d="M423.39,341.76l4.88-2.81c.39-.23.34-.62-.11-.88l-4.83-2.79a1.69,1.69,0,0,0-1.53-.06L416.93,338c-.4.23-.35.62.11.88l4.83,2.79A1.67,1.67,0,0,0,423.39,341.76Z" transform="translate(-187.14 -161.6)"/><path class="cls-11" d="M430.89,337.44l4.87-2.82c.39-.22.35-.62-.11-.88L430.82,331a1.69,1.69,0,0,0-1.53-.06l-4.87,2.81c-.39.23-.34.63.11.89l4.83,2.79A1.69,1.69,0,0,0,430.89,337.44Z" transform="translate(-187.14 -161.6)"/><path class="cls-11" d="M438.38,333.11l4.88-2.81c.39-.23.34-.62-.11-.88l-4.83-2.79a1.73,1.73,0,0,0-1.53-.07l-4.88,2.82c-.39.22-.34.62.11.88l4.83,2.79A1.69,1.69,0,0,0,438.38,333.11Z" transform="translate(-187.14 -161.6)"/><path class="cls-11" d="M430.68,328.66l4.87-2.81c.39-.23.34-.62-.11-.88l-1.6-.92a1.67,1.67,0,0,0-1.52-.07l-4.88,2.82c-.39.22-.34.62.11.88l1.6.92A1.69,1.69,0,0,0,430.68,328.66Z" transform="translate(-187.14 -161.6)"/><path class="cls-11" d="M420.9,334.31l4.87-2.82c.39-.22.35-.62-.11-.88l-1.59-.92a1.69,1.69,0,0,0-1.53-.06l-4.88,2.81c-.39.23-.34.62.11.88l1.6.93A1.69,1.69,0,0,0,420.9,334.31Z" transform="translate(-187.14 -161.6)"/><path class="cls-11" d="M413.44,338.62l4.87-2.82c.39-.22.34-.62-.11-.88l-1.6-.92a1.67,1.67,0,0,0-1.52-.06l-4.88,2.81c-.39.23-.34.62.11.88l1.6.92A1.69,1.69,0,0,0,413.44,338.62Z" transform="translate(-187.14 -161.6)"/><path class="cls-11" d="M406,342.93l4.88-2.82c.39-.23.34-.62-.11-.88l-1.6-.92a1.71,1.71,0,0,0-1.52-.07l-4.88,2.82c-.39.22-.34.62.11.88l1.6.92A1.71,1.71,0,0,0,406,342.93Z" transform="translate(-187.14 -161.6)"/><path class="cls-11" d="M398.51,347.23l4.88-2.81c.39-.23.34-.62-.11-.88l-1.6-.93a1.72,1.72,0,0,0-1.53-.06l-4.87,2.82c-.39.22-.34.62.11.88l1.59.92A1.69,1.69,0,0,0,398.51,347.23Z" transform="translate(-187.14 -161.6)"/><path class="cls-11" d="M356.86,371.28l4.87-2.81c.39-.23.34-.62-.11-.88l-1.6-.92a1.67,1.67,0,0,0-1.52-.07l-4.88,2.82c-.39.22-.34.62.11.88l1.6.92A1.69,1.69,0,0,0,356.86,371.28Z" transform="translate(-187.14 -161.6)"/><path class="cls-11" d="M349.39,375.59l4.88-2.81c.39-.23.34-.62-.11-.88l-1.6-.93a1.67,1.67,0,0,0-1.52-.06l-4.88,2.82c-.39.22-.34.62.11.88l1.6.92A1.67,1.67,0,0,0,349.39,375.59Z" transform="translate(-187.14 -161.6)"/><path class="cls-11" d="M341.93,379.9l4.88-2.81c.39-.23.34-.63-.11-.89l-1.6-.92a1.69,1.69,0,0,0-1.53-.06L338.7,378c-.39.23-.34.62.11.88l1.59.93A1.69,1.69,0,0,0,341.93,379.9Z" transform="translate(-187.14 -161.6)"/><path class="cls-11" d="M334.47,384.21l4.88-2.82c.39-.22.34-.62-.11-.88l-1.6-.92a1.69,1.69,0,0,0-1.53-.06l-4.87,2.81c-.4.23-.35.62.11.88l1.59.92A1.7,1.7,0,0,0,334.47,384.21Z" transform="translate(-187.14 -161.6)"/><path class="cls-11" d="M408.37,350.44l4.88-2.82c.39-.22.34-.62-.11-.88L408.31,344a1.69,1.69,0,0,0-1.53-.06l-4.88,2.81c-.39.23-.34.62.11.89l4.83,2.79A1.73,1.73,0,0,0,408.37,350.44Z" transform="translate(-187.14 -161.6)"/><path class="cls-11" d="M400.84,354.79l4.88-2.82c.39-.23.34-.62-.11-.88l-4.83-2.79a1.69,1.69,0,0,0-1.53-.06l-4.88,2.81c-.39.23-.34.62.11.88l4.83,2.79A1.73,1.73,0,0,0,400.84,354.79Z" transform="translate(-187.14 -161.6)"/><path class="cls-11" d="M393.31,359.13l4.88-2.81c.39-.23.34-.62-.11-.88l-4.83-2.79a1.73,1.73,0,0,0-1.53-.07l-4.88,2.82c-.39.23-.34.62.11.88l4.83,2.79A1.69,1.69,0,0,0,393.31,359.13Z" transform="translate(-187.14 -161.6)"/><path class="cls-11" d="M385.78,363.48l4.88-2.81c.39-.23.34-.62-.11-.89L385.72,357a1.73,1.73,0,0,0-1.53-.06l-4.88,2.82c-.39.22-.34.62.11.88l4.83,2.79A1.69,1.69,0,0,0,385.78,363.48Z" transform="translate(-187.14 -161.6)"/><path class="cls-11" d="M378.25,367.83l4.88-2.82c.39-.22.34-.62-.11-.88l-4.83-2.79a1.69,1.69,0,0,0-1.53-.06l-4.88,2.81c-.39.23-.34.63.11.89l4.83,2.79A1.72,1.72,0,0,0,378.25,367.83Z" transform="translate(-187.14 -161.6)"/><path class="cls-11" d="M370.72,372.18l4.88-2.82c.39-.22.34-.62-.11-.88l-4.84-2.79a1.67,1.67,0,0,0-1.52-.06l-4.88,2.81c-.39.23-.34.62.11.88l4.83,2.79A1.73,1.73,0,0,0,370.72,372.18Z" transform="translate(-187.14 -161.6)"/><path class="cls-11" d="M363.19,376.52l4.88-2.81c.39-.23.34-.62-.11-.88L363.12,370a1.71,1.71,0,0,0-1.52-.07l-4.88,2.82c-.39.23-.34.62.11.88l4.83,2.79A1.69,1.69,0,0,0,363.19,376.52Z" transform="translate(-187.14 -161.6)"/><path class="cls-11" d="M355.66,380.87l4.88-2.81c.39-.23.34-.62-.11-.89l-4.84-2.78a1.67,1.67,0,0,0-1.52-.07l-4.88,2.82c-.39.22-.34.62.11.88l4.83,2.79A1.69,1.69,0,0,0,355.66,380.87Z" transform="translate(-187.14 -161.6)"/><path class="cls-11" d="M348.13,385.22,353,382.4c.39-.22.34-.62-.11-.88l-4.84-2.79a1.67,1.67,0,0,0-1.52-.06l-4.88,2.81c-.39.23-.34.63.11.89l4.83,2.79A1.69,1.69,0,0,0,348.13,385.22Z" transform="translate(-187.14 -161.6)"/><path class="cls-11" d="M451.42,351l14.36-8.3c.4-.22.35-.62-.11-.88L460.84,339a1.67,1.67,0,0,0-1.52-.06L445,347.24c-.39.23-.34.62.11.88l4.84,2.79A1.71,1.71,0,0,0,451.42,351Z" transform="translate(-187.14 -161.6)"/><path class="cls-11" d="M358.91,404.39l14.36-8.29c.39-.23.35-.63-.11-.89l-4.83-2.79a1.69,1.69,0,0,0-1.53-.06l-14.36,8.29c-.39.23-.34.62.11.88l4.83,2.79A1.73,1.73,0,0,0,358.91,404.39Z" transform="translate(-187.14 -161.6)"/><path class="cls-11" d="M389,396.6l4.87-2.81c.39-.23.35-.62-.11-.88L388,389.58a1.69,1.69,0,0,0-1.53-.06l-4.88,2.82c-.39.22-.34.62.11.88l5.76,3.32A1.69,1.69,0,0,0,389,396.6Z" transform="translate(-187.14 -161.6)"/><path class="cls-11" d="M443.71,365l7.8-4.5c.39-.23.34-.62-.11-.88l-5.76-3.33a1.67,1.67,0,0,0-1.52-.06l-7.8,4.5c-.39.23-.34.62.11.88l5.75,3.33A1.69,1.69,0,0,0,443.71,365Z" transform="translate(-187.14 -161.6)"/><path class="cls-11" d="M396.28,392.41l7.8-4.5c.39-.22.34-.62-.11-.88l-5.75-3.32a1.73,1.73,0,0,0-1.53-.07l-7.8,4.51c-.39.22-.34.62.11.88l5.75,3.32A1.69,1.69,0,0,0,396.28,392.41Z" transform="translate(-187.14 -161.6)"/><path class="cls-11" d="M432.85,371.3l7.8-4.5c.39-.22.34-.62-.11-.88l-5.76-3.32a1.73,1.73,0,0,0-1.53-.07l-7.8,4.51c-.39.22-.34.62.11.88l5.76,3.32A1.69,1.69,0,0,0,432.85,371.3Z" transform="translate(-187.14 -161.6)"/><path class="cls-11" d="M433.2,362.56l-33.91,19.58a.46.46,0,0,0,0,.88l5.87,3.39a1.72,1.72,0,0,0,1.53,0l33.9-19.58Z" transform="translate(-187.14 -161.6)"/><path class="cls-11" d="M368,404.49l-5.43,3.13c-.32.19-.28.51.09.72L365,409.7a1.41,1.41,0,0,0,1.26.06l5.43-3.14c.32-.19.28-.51-.09-.72l-2.36-1.36A1.35,1.35,0,0,0,368,404.49Z" transform="translate(-187.14 -161.6)"/><path class="cls-11" d="M375.57,400.1l-5.43,3.14c-.32.18-.28.51.09.72l2.36,1.36a1.38,1.38,0,0,0,1.25.05l5.43-3.13c.32-.19.28-.51-.09-.73l-2.35-1.36A1.44,1.44,0,0,0,375.57,400.1Z" transform="translate(-187.14 -161.6)"/><path class="cls-11" d="M383.1,395.75l-5.43,3.14c-.32.19-.28.51.09.72l2.36,1.36a1.35,1.35,0,0,0,1.25,0l5.43-3.13c.32-.19.28-.51-.09-.72l-2.35-1.36A1.41,1.41,0,0,0,383.1,395.75Z" transform="translate(-187.14 -161.6)"/><path class="cls-11" d="M371.41,397.7,366,400.84c-.32.18-.28.51.09.72l2.36,1.36a1.38,1.38,0,0,0,1.25.05l5.43-3.13c.32-.19.28-.51-.09-.73l-2.35-1.36A1.44,1.44,0,0,0,371.41,397.7Z" transform="translate(-187.14 -161.6)"/></g><path class="cls-12" d="M291.72,388.91l143.86-83.06a6.39,6.39,0,0,0,2.64-7.11L405.68,193.11c-.8-2.62-3.29-3.69-5.55-2.38L256.27,273.79a6.37,6.37,0,0,0-2.64,7.11l32.53,105.63C287,389.15,289.46,390.21,291.72,388.91Z" transform="translate(-187.14 -161.6)"/><path class="cls-13" d="M293.08,385.21l139.53-80.63a6.1,6.1,0,0,0,2.53-6.8L404,196.79c-.77-2.5-3.15-3.52-5.31-2.27L259.18,275.15a6.09,6.09,0,0,0-2.52,6.8l31.1,101C288.53,385.44,290.91,386.46,293.08,385.21Z" transform="translate(-187.14 -161.6)"/><path class="cls-14" d="M293.08,385.21l139.53-80.63a6.1,6.1,0,0,0,2.53-6.8L404,196.79c-.77-2.5-3.15-3.52-5.31-2.27L259.18,275.15a6.09,6.09,0,0,0-2.52,6.8l31.1,101C288.53,385.44,290.91,386.46,293.08,385.21Z" transform="translate(-187.14 -161.6)"/><path class="cls-14" d="M293.08,385.21l139.53-80.63a6.1,6.1,0,0,0,2.53-6.8L404,196.79c-.77-2.5-3.15-3.52-5.31-2.27L259.18,275.15a6.09,6.09,0,0,0-2.52,6.8l31.1,101C288.53,385.44,290.91,386.46,293.08,385.21Z" transform="translate(-187.14 -161.6)"/><path class="cls-15" d="M300.57,354.35,395,299.81a4.18,4.18,0,0,0,1.73-4.67L375.4,225.79a2.43,2.43,0,0,0-3.65-1.57l-94.46,54.54a4.19,4.19,0,0,0-1.73,4.67l21.37,69.36A2.42,2.42,0,0,0,300.57,354.35Z" transform="translate(-187.14 -161.6)"/><path class="cls-16" d="M313.34,356l94.46-54.54a4.17,4.17,0,0,0,1.73-4.66l-21.36-69.36a2.43,2.43,0,0,0-3.65-1.56l-94.46,54.53a4.18,4.18,0,0,0-1.73,4.67l21.36,69.36A2.42,2.42,0,0,0,313.34,356Z" transform="translate(-187.14 -161.6)"/><g class="cls-17"><path class="cls-11" d="M313.34,356l94.46-54.54a4.17,4.17,0,0,0,1.73-4.66l-21.36-69.36a2.43,2.43,0,0,0-3.65-1.56l-94.46,54.53a4.18,4.18,0,0,0-1.73,4.67l21.36,69.36A2.42,2.42,0,0,0,313.34,356Z" transform="translate(-187.14 -161.6)"/></g><path class="cls-9" d="M290.06,280.43l94.46-54.53a2.36,2.36,0,0,1,2.66.09,2.62,2.62,0,0,0-1.37.35l-94.46,54.53a4.19,4.19,0,0,0-1.73,4.67L311,354.9a2.88,2.88,0,0,0,1,1.47,2.5,2.5,0,0,1-2.28-1.91L288.33,285.1A4.18,4.18,0,0,1,290.06,280.43Z" transform="translate(-187.14 -161.6)"/><path class="cls-14" d="M428,411.53l-19.49-11.25a3.57,3.57,0,0,1-2.08-2.89,2.74,2.74,0,0,1,1.55-2.33l37.85-21.85a8.69,8.69,0,0,1,7.95.31l19.48,11.24a3.59,3.59,0,0,1,2.09,2.9,2.74,2.74,0,0,1-1.55,2.33L436,411.84h0a7.1,7.1,0,0,1-3.5.82A9.06,9.06,0,0,1,428,411.53Zm18.37-37.37L408.55,396a1.72,1.72,0,0,0-1,1.38c0,.67.56,1.38,1.54,1.95l19.48,11.25c2,1.15,5.15,1.29,6.86.3L473.27,389a1.72,1.72,0,0,0,1-1.38c0-.67-.56-1.38-1.54-2l-19.48-11.25a8.22,8.22,0,0,0-3.93-1A6,6,0,0,0,446.39,374.16Z" transform="translate(-187.14 -161.6)"/><path class="cls-9" d="M331.74,278.8,325.8,282a1.55,1.55,0,0,1-1.77-.33h0a.87.87,0,0,1,.23-1.41l5.94-3.19a1.52,1.52,0,0,1,1.77.33h0A.86.86,0,0,1,331.74,278.8Z" transform="translate(-187.14 -161.6)"/><path class="cls-9" d="M345.89,271.2l-8.76,4.71a1.54,1.54,0,0,1-1.77-.34h0a.87.87,0,0,1,.23-1.4l8.76-4.71a1.52,1.52,0,0,1,1.77.33h0A.87.87,0,0,1,345.89,271.2Z" transform="translate(-187.14 -161.6)"/><path class="cls-9" d="M347.66,302.49l-5.94,3.2a1.53,1.53,0,0,1-1.77-.33h0a.87.87,0,0,1,.23-1.41l5.94-3.19a1.52,1.52,0,0,1,1.77.33h0A.86.86,0,0,1,347.66,302.49Z" transform="translate(-187.14 -161.6)"/><path class="cls-9" d="M360.27,295.71l-8.76,4.71a1.5,1.5,0,0,1-1.76-.33h0a.86.86,0,0,1,.22-1.4l8.76-4.71a1.52,1.52,0,0,1,1.77.33h0A.86.86,0,0,1,360.27,295.71Z" transform="translate(-187.14 -161.6)"/><path class="cls-9" d="M318.6,291.24l-3.71,2a1.52,1.52,0,0,1-1.77-.33h0a.87.87,0,0,1,.23-1.41l3.71-2a1.52,1.52,0,0,1,1.77.33h0A.86.86,0,0,1,318.6,291.24Z" transform="translate(-187.14 -161.6)"/><path class="cls-9" d="M334.41,288.12l-11.33,6.09a1.51,1.51,0,0,1-1.77-.33h0a.86.86,0,0,1,.22-1.4l11.34-6.1a1.53,1.53,0,0,1,1.77.33h0A.86.86,0,0,1,334.41,288.12Z" transform="translate(-187.14 -161.6)"/><path class="cls-9" d="M333.26,299.49l-3.71,2a1.51,1.51,0,0,1-1.77-.33h0a.86.86,0,0,1,.22-1.4l3.71-2a1.53,1.53,0,0,1,1.77.34h0A.86.86,0,0,1,333.26,299.49Z" transform="translate(-187.14 -161.6)"/><path class="cls-9" d="M370.94,300.73,361,306.06a1.53,1.53,0,0,1-1.77-.33h0a.87.87,0,0,1,.22-1.41l9.91-5.33a1.54,1.54,0,0,1,1.77.33h0A.87.87,0,0,1,370.94,300.73Z" transform="translate(-187.14 -161.6)"/><path class="cls-9" d="M338.4,307.48,336,308.76a1.53,1.53,0,0,1-1.77-.34h0a.86.86,0,0,1,.22-1.4l2.38-1.28a1.51,1.51,0,0,1,1.77.33h0A.87.87,0,0,1,338.4,307.48Z" transform="translate(-187.14 -161.6)"/><path class="cls-9" d="M345.44,314.44,342.49,316a1.53,1.53,0,0,1-1.77-.33h0a.87.87,0,0,1,.22-1.41l3-1.59a1.53,1.53,0,0,1,1.77.33h0A.87.87,0,0,1,345.44,314.44Z" transform="translate(-187.14 -161.6)"/><path class="cls-9" d="M357,308.25l-7.8,4.19a1.52,1.52,0,0,1-1.77-.33h0a.86.86,0,0,1,.23-1.4l7.79-4.19a1.51,1.51,0,0,1,1.77.33h0A.86.86,0,0,1,357,308.25Z" transform="translate(-187.14 -161.6)"/><path class="cls-9" d="M351.33,316.65l-5.61,3a1.52,1.52,0,0,1-1.77-.33h0a.86.86,0,0,1,.23-1.4l5.6-3a1.53,1.53,0,0,1,1.77.34h0A.86.86,0,0,1,351.33,316.65Z" transform="translate(-187.14 -161.6)"/><path class="cls-9" d="M379.46,296.17l-3.6,1.94a1.54,1.54,0,0,1-1.77-.34h0a.86.86,0,0,1,.23-1.4l3.6-1.94a1.54,1.54,0,0,1,1.77.34h0A.87.87,0,0,1,379.46,296.17Z" transform="translate(-187.14 -161.6)"/><path class="cls-9" d="M347.06,292.07l-9.91,5.33a1.55,1.55,0,0,1-1.77-.33h0a.86.86,0,0,1,.23-1.41l9.9-5.33a1.54,1.54,0,0,1,1.77.33h0A.87.87,0,0,1,347.06,292.07Z" transform="translate(-187.14 -161.6)"/><path class="cls-18" d="M343.58,288.56l-17.27,9.29a1.53,1.53,0,0,1-1.77-.33h0a.87.87,0,0,1,.23-1.41L342,286.83a1.52,1.52,0,0,1,1.77.33h0A.86.86,0,0,1,343.58,288.56Z" transform="translate(-187.14 -161.6)"/><path class="cls-18" d="M342.69,299.79l-9.91,5.33a1.52,1.52,0,0,1-1.77-.33h0a.87.87,0,0,1,.23-1.41l9.91-5.32a1.52,1.52,0,0,1,1.77.33h0A.86.86,0,0,1,342.69,299.79Z" transform="translate(-187.14 -161.6)"/><path class="cls-18" d="M354.57,288,351,290a1.52,1.52,0,0,1-1.77-.33h0a.86.86,0,0,1,.23-1.4l3.6-1.94a1.53,1.53,0,0,1,1.77.33h0A.86.86,0,0,1,354.57,288Z" transform="translate(-187.14 -161.6)"/><path class="cls-18" d="M372.6,256.83,351.28,268.3a1.53,1.53,0,0,1-1.77-.33h0a.86.86,0,0,1,.23-1.41l21.32-11.46a1.52,1.52,0,0,1,1.77.33h0A.86.86,0,0,1,372.6,256.83Z" transform="translate(-187.14 -161.6)"/><path class="cls-19" d="M351.16,306l-11.91,6.4a1.52,1.52,0,0,1-1.77-.33h0a.86.86,0,0,1,.23-1.4l11.91-6.41a1.53,1.53,0,0,1,1.77.33h0A.87.87,0,0,1,351.16,306Z" transform="translate(-187.14 -161.6)"/><path class="cls-19" d="M320.41,284.89l-8.75,4.71a1.51,1.51,0,0,1-1.77-.33h0a.86.86,0,0,1,.22-1.4l8.76-4.71a1.52,1.52,0,0,1,1.77.33h0A.86.86,0,0,1,320.41,284.89Z" transform="translate(-187.14 -161.6)"/><path class="cls-18" d="M354.14,320.51,344,326a1.52,1.52,0,0,1-1.77-.33h0a.86.86,0,0,1,.23-1.4l10.14-5.46a1.54,1.54,0,0,1,1.77.34h0A.86.86,0,0,1,354.14,320.51Z" transform="translate(-187.14 -161.6)"/><path class="cls-9" d="M319,274.7l4.27-2.47a1.08,1.08,0,0,0,.47-1.22h0a.62.62,0,0,0-1-.4l-4.27,2.46a1.12,1.12,0,0,0-.48,1.23h0A.63.63,0,0,0,319,274.7Z" transform="translate(-187.14 -161.6)"/><path class="cls-9" d="M310.84,279.4l4.27-2.47a1.1,1.1,0,0,0,.47-1.22h0a.63.63,0,0,0-1-.4l-4.27,2.46a1.13,1.13,0,0,0-.47,1.23h0A.63.63,0,0,0,310.84,279.4Z" transform="translate(-187.14 -161.6)"/><path class="cls-9" d="M302.7,284.1l4.27-2.46a1.13,1.13,0,0,0,.47-1.23h0a.63.63,0,0,0-1-.4l-4.27,2.46a1.12,1.12,0,0,0-.47,1.23h0A.63.63,0,0,0,302.7,284.1Z" transform="translate(-187.14 -161.6)"/><path class="cls-19" d="M298.7,286.41l.12-.07a1.12,1.12,0,0,0,.48-1.23h0a.63.63,0,0,0-1-.4l-.13.08a1.09,1.09,0,0,0-.47,1.22h0A.63.63,0,0,0,298.7,286.41Z" transform="translate(-187.14 -161.6)"/><path class="cls-20" d="M511.19,334.28,482.6,317.77a4,4,0,0,1,0-6.85l28.6-16.51a15.62,15.62,0,0,1,15.62,0l28.6,16.5a4,4,0,0,1,0,6.86l-28.6,16.51h0a15.66,15.66,0,0,1-15.63,0Zm43.3-18.12a2.1,2.1,0,0,0,0-3.63L525.89,296a13.77,13.77,0,0,0-13.76,0l-28.6,16.51a2.09,2.09,0,0,0,0,3.63l28.59,16.51a13.82,13.82,0,0,0,13.77,0Z" transform="translate(-187.14 -161.6)"/><ellipse class="cls-4" cx="332.02" cy="153.14" rx="19.64" ry="11.34"/><path class="cls-21" d="M490,233.91H546l-5.2,60.57h0c0,3.37-2.23,6.73-6.67,9.3-8.89,5.13-23.31,5.13-32.2,0-4.45-2.57-6.67-5.93-6.67-9.3Z" transform="translate(-187.14 -161.6)"/><path class="cls-14" d="M490,233.91H546l-.85,10a21.88,21.88,0,0,1-5.19,4.66c-10.69,7.09-28.33,8.46-40.36,3.35l1.86,44.3a8.74,8.74,0,0,0,2,5.29c1.81,2.13,5.3,4.64,12,6.06a31.67,31.67,0,0,1-13.54-3.76c-4.45-2.57-6.67-5.93-6.67-9.3l-4.17-48.57h0Z" transform="translate(-187.14 -161.6)"/><ellipse class="cls-14" cx="330.87" cy="72.32" rx="27.97" ry="16.15"/><ellipse class="cls-14" cx="330.87" cy="66.62" rx="24.09" ry="13.91"/><path class="cls-22" d="M488.38,233.15h0v0a.28.28,0,0,0,0-.09l.54-5.42,0,.06c.24-4.1,3.07-8.17,8.5-11.3,11.35-6.56,29.77-6.56,41.12,0,5.57,3.21,8.4,7.4,8.51,11.61h0l.51,4.83c0,.12,0,.25,0,.37v.08h0c.31,4.6-2.58,9.26-8.66,12.77-11.58,6.69-30.36,6.69-41.94,0C490.92,242.48,488,237.78,488.38,233.15Z" transform="translate(-187.14 -161.6)"/><ellipse class="cls-23" cx="330.87" cy="66.62" rx="24.09" ry="13.91"/><ellipse class="cls-24" cx="332.02" cy="66.62" rx="24.09" ry="13.91"/><path class="cls-14" d="M532.19,220.46c-9.41-5.43-24.66-5.43-34.07,0l-.34.21a19,19,0,0,1,3.19-2.28c9.41-5.44,24.67-5.44,34.08,0s9.38,14,.33,19.45C541.43,232.45,540.37,225.18,532.19,220.46Z" transform="translate(-187.14 -161.6)"/><path class="cls-25" d="M535.05,220.8c-9.41-5.43-24.67-5.43-34.08,0-4.17,2.41-6.49,5.48-7,8.63-.59-4,1.73-8,7-11,9.41-5.44,24.67-5.44,34.08,0,5.23,3,7.55,7.09,7,11C541.54,226.28,539.22,223.21,535.05,220.8Z" transform="translate(-187.14 -161.6)"/><path class="cls-26" d="M497.48,240.32c11.45,6.48,29.93,6.32,41.27-.37s11.25-17.35-.21-23.83-29.93-6.31-41.27.37S486,233.84,497.48,240.32ZM501,218.39c9.41-5.44,24.67-5.44,34.08,0s9.4,14.23,0,19.67a31.74,31.74,0,0,1-11,3.61l-.44-1.44a1.37,1.37,0,0,0-1.31-1h-8.66a1.37,1.37,0,0,0-1.31,1l-.44,1.44a31.53,31.53,0,0,1-11-3.61C491.57,232.62,491.57,223.82,501,218.39Z" transform="translate(-187.14 -161.6)"/><path class="cls-9" d="M501,217.36c9.41-5.44,24.67-5.44,34.08,0,4.93,2.84,7.27,6.62,7,10.35-.22-3.39-2.56-6.74-7-9.32-9.41-5.44-24.67-5.44-34.08,0-4.47,2.58-6.81,5.93-7,9.32C493.7,224,496,220.2,501,217.36Z" transform="translate(-187.14 -161.6)"/><path class="cls-9" d="M497.48,239.29c11.45,6.48,29.93,6.32,41.27-.37,5.4-3.17,8.2-7.26,8.43-11.36.22,4.44-2.58,8.95-8.43,12.39-11.34,6.69-29.82,6.85-41.27.37-6-3.4-8.89-7.95-8.64-12.47C489.05,232,491.93,236.15,497.48,239.29Z" transform="translate(-187.14 -161.6)"/><rect class="cls-27" x="514.77" y="241.02" width="6.48" height="1.4" rx="0.65" transform="translate(848.88 321.84) rotate(-180)"/><path class="cls-28" d="M515.42,241h5.18a.65.65,0,0,1,.65.65v.09a.58.58,0,0,1,0,.18.63.63,0,0,0-.61-.48h-5.18a.63.63,0,0,0-.61.48.58.58,0,0,1,0-.18v-.09A.65.65,0,0,1,515.42,241Z" transform="translate(-187.14 -161.6)"/><path class="cls-18" d="M517.22,288.26a4.47,4.47,0,0,0,8.64-2.3c-.64-2.38-2.89-3.06-5.27-2.42S516.58,285.87,517.22,288.26Z" transform="translate(-187.14 -161.6)"/><path class="cls-18" d="M513.7,283.55a2,2,0,1,0,2.77-2.83c-.9-.88-2.61-1.31-3.38-.53S512.8,282.67,513.7,283.55Z" transform="translate(-187.14 -161.6)"/><path class="cls-18" d="M518.37,279.81a2,2,0,1,0,3.9-.69c-.22-1.24-1.36-2.59-2.44-2.39S518.15,278.57,518.37,279.81Z" transform="translate(-187.14 -161.6)"/><path class="cls-18" d="M524.13,279.24a2,2,0,1,0,3.66,1.51c.48-1.17.24-2.92-.77-3.33S524.61,278.08,524.13,279.24Z" transform="translate(-187.14 -161.6)"/><path class="cls-29" d="M516.18,241.72s-15.64-5.24-9.31-23.22,18.66-23.44,13.7-37.82c0,0,7.78,11.64.51,27.38s-8.87,13.94-8.79,21.47a13.59,13.59,0,0,0,7.33,12.19Z" transform="translate(-187.14 -161.6)"/><path class="cls-29" d="M298,183.18s-1.63-10.75,8.45-21.58c0,0-8.92,19.91-6,29.75C300.44,191.35,298.08,185.1,298,183.18Z" transform="translate(-187.14 -161.6)"/></svg>