<?xml version="1.0" encoding="utf-8"?>
<!-- Generator: Adobe Illustrator 24.2.1, SVG Export Plug-In . SVG Version: 6.00 Build 0)  -->
<svg version="1.1" id="Layer_1" xmlns="http://www.w3.org/2000/svg" xmlns:xlink="http://www.w3.org/1999/xlink" x="0px" y="0px"
	 viewBox="0 0 443.6 139.2" style="enable-background:new 0 0 443.6 139.2;" xml:space="preserve">
<style type="text/css">
	.st0{fill:#3AB7BB;}
	.st1{fill:#FFFFFF;}
	.st2{fill:#40B5BC;stroke:#40B5BC;stroke-width:0.44;stroke-miterlimit:10;}
</style>
<path class="st0" d="M64.9,129.6c-3.3,3.9-9.2,4.4-13.1,1c-0.2-0.2-0.4-0.3-0.5-0.5c0,0-3.4-3.4-8.2-8.2c-0.5-0.6-1.1-1.1-1.6-1.7
	c-3.9-4.5-3.4-10.6-5.8-15.8c-0.9-1.5-2.4-2.1-4.2-2.4c-4.7-0.9-9.2-1.6-12.8-4.6c-0.6-0.5-1.2-1.1-1.7-1.6l-8.2-8.2
	C5,83.9,5,78,8.7,74.3C8.8,74.2,9,74,9.2,73.9l4.7,4.7c1,1,2,1.9,3,2.9c6.4,5.4,14.4,6.6,22.7,8.1c3.1,0.6,5.9,1.5,7.4,4.3
	c4.3,9.3,3.4,20,10.4,28c1,1.1,1.9,2.1,2.9,3L64.9,129.6z"/>
<path class="st1" d="M115.3,3.2L12.3,30.9c-3.1,0.8-5.9,2.6-8.1,5c-5.8,6.5-5.5,16.5,0.7,22.6l7.4,7.4l2.8,2.8l4.4,4.4
	c1,1,2,1.9,3,2.9c6.4,5.4,14.4,6.6,22.7,8.1c3.1,0.6,5.9,1.5,7.4,4.3c4.3,9.3,3.4,20,10.4,28c1,1.1,1.9,2.1,2.9,3l4.4,4.4l10.1,10.2
	c6.4,6.5,16.9,6.5,23.3,0c2.1-2.1,3.6-4.6,4.3-7.4l27.6-103.1c2.4-8.8-2.9-17.8-11.7-20.2C121.1,2.5,118.1,2.5,115.3,3.2z"/>
<path class="st1" d="M194.9,95.1c-2.6,0-5.3-0.4-7.8-1.3c-2.4-0.8-4.7-2.1-6.8-3.6c-2-1.5-3.8-3.3-5.3-5.4c-1.5-2.1-2.6-4.4-3.4-6.8
	c-3,0.2-5.3,1.3-6.7,3.3c-1,1.4-1.6,3-1.9,4.6c-0.4,2-0.5,3.9-0.5,5.9V104h-11.4V91.7c-0.1-3.7,0.4-7.4,1.5-11c0.9-3,2.5-5.7,4.6-8
	c0.9-1,1.9-1.8,3-2.6c1.1-0.7,2.3-1.4,3.5-1.9c1.2-0.5,2.4-0.9,3.7-1.2c1.1-0.3,2.3-0.4,3.5-0.4c0.5-2.9,1.4-5.7,2.9-8.2
	c1.4-2.5,3.2-4.7,5.3-6.6c2.1-1.8,4.5-3.3,7.1-4.4c2.7-1.1,5.6-1.6,8.6-1.6c3.3,0,6.6,0.6,9.6,1.9c2.9,1.2,5.6,3,7.9,5.3
	c2.3,2.3,4.1,4.9,5.3,7.9c1.3,3.1,1.9,6.5,1.9,9.8c0,0.7,0,1.4-0.1,2s-0.1,1.3-0.3,2h9v11.4H214C209.3,91.8,202.3,95.1,194.9,95.1
	L194.9,95.1z M189.8,82.7c1.6,0.7,3.4,1,5.1,1c1.8,0,3.5-0.3,5.2-1c1.6-0.6,3-1.5,4.3-2.7c1.2-1.2,2.2-2.6,2.9-4.1
	c0.7-1.7,1-3.5,1-5.3c0-1.8-0.3-3.6-1-5.3c-0.6-1.6-1.6-3-2.8-4.2c-1.2-1.2-2.7-2.1-4.2-2.8c-1.7-0.7-3.5-1-5.4-1
	c-1.8,0-3.6,0.3-5.2,1.1c-1.5,0.7-2.9,1.6-4.1,2.9c-1.2,1.2-2.1,2.7-2.7,4.2c-0.7,1.7-1,3.4-1,5.2c0,1.8,0.3,3.5,1,5.2
	c0.6,1.6,1.5,3,2.7,4.2C186.8,81.1,188.2,82,189.8,82.7z"/>
<path class="st1" d="M233.6,10.6l6.4-1.1c-0.3-0.8-0.5-1.7-0.5-2.5c0-1.7,0.5-3.4,1.5-4.8c1-1.4,2.7-2.2,5.1-2.2
	c1.7-0.1,3.3,0.6,4.4,1.8c1.1,1.3,1.7,3,1.7,4.8c0,0.7,0,1.5-0.1,2.3c-0.1,1-0.2,1.9-0.4,2.9L234,14.4L233.6,10.6z M243.8,4.7
	c-0.5,0.5-0.8,1.3-0.8,2c0,0.7,0.1,1.5,0.3,2.2l4.9-0.8c0.1-0.4,0.2-0.9,0.2-1.3c0-0.7-0.2-1.4-0.6-2c-0.5-0.6-1.2-0.9-2-0.9
	C245,3.9,244.3,4.2,243.8,4.7L243.8,4.7z"/>
<path class="st1" d="M226.6,74.8h50.7v-8.7c0-1.4-0.2-2.9-0.5-4.3c-0.3-1.2-0.9-2.3-1.7-3.2c-0.8-1-1.8-1.8-2.9-2.3
	c-1.2-0.6-2.6-0.9-4-0.9h-34c-1.1-1.5-2-3.1-2.6-4.8c-0.8-2.1-1.2-4.3-1.3-6.5l13.2-23.9h12.2l-12.6,23.9h24
	c3.3-0.1,6.6,0.4,9.7,1.4c2.8,0.9,5.2,2.6,7.2,4.7c1.8,2,3.1,4.4,3.7,7c0.7,3,1.1,6.2,1.1,9.3v19.6h-62.1V74.8z"/>
<path class="st1" d="M303.6,20.2H315v54.6h10.4v11.4h-21.8L303.6,20.2z"/>
<path class="st1" d="M323.8,74.8h10.1V40.3h11.4v34.4h8.7v11.4h-30.2V74.8z M343.9,31.9c-2.8,2.1-6.6,2.1-9.4,0
	c-1.4-1.1-2.1-2.8-2-4.5c-0.1-1.7,0.6-3.3,1.9-4.4c2.8-2.2,6.7-2.2,9.5,0c1.3,1.1,2,2.7,1.9,4.4C346,29.1,345.2,30.8,343.9,31.9z"/>
<path class="st1" d="M352.4,74.8h17.7V44.4h11.4v30.3h8.3c1.2,0,2.5-0.2,3.7-0.5c1.3-0.3,2.5-0.8,3.5-1.6c1.1-0.8,2-1.9,2.6-3.1
	c0.7-1.6,1.1-3.3,1-5V44.4H412v20.2c0.1,3.7,1.1,6.5,2.9,8.3c2,1.9,4.6,2.8,7.4,2.7c3.3,0,5.7-0.9,7.3-2.8c1.7-2.1,2.6-4.8,2.4-7.5
	V34.7h11.3v29.2c0,7.9-1.7,13.7-5.2,17.5c-3.5,3.8-8.8,5.7-15.9,5.7c-1.6,0-3.1-0.1-4.6-0.4c-1.5-0.2-3-0.7-4.4-1.3
	c-1.4-0.6-2.7-1.4-3.9-2.4c-1.3-1.1-2.4-2.4-3.2-3.8c-2.1,2.2-4.6,3.9-7.3,5.1c-2.8,1.2-5.8,1.9-8.9,1.9h-37.5V74.8z"/>
<path class="st2" d="M265.6,132.4c1.7,1,3.4,1.9,5.3,2.5c1.8,0.6,3.8,0.9,5.7,0.9c2.6,0.1,5.1-0.5,7.3-1.9c1.7-1.3,2.7-3.3,2.6-5.5
	c0.1-2-0.8-3.8-2.3-5.1c-0.8-0.7-1.8-1.3-2.8-1.7c-1.2-0.5-2.5-1-3.7-1.4l-2.7-0.8c-2.8-0.7-5.4-2.1-7.4-4.1c-1.6-1.7-2.4-4-2.4-6.3
	c0-1.5,0.3-2.9,1-4.2c0.7-1.2,1.6-2.1,2.7-2.9c1.1-0.8,2.4-1.3,3.8-1.7c1.4-0.3,2.8-0.5,4.3-0.5c2.2,0,4.5,0.3,6.6,0.9
	c2.1,0.6,4.2,1.6,6.1,2.7l-1.7,2.9c-1.7-1.1-3.4-1.9-5.3-2.5c-1.9-0.6-3.8-0.9-5.8-0.8c-1.1,0-2.2,0.1-3.2,0.4
	c-0.9,0.2-1.8,0.6-2.6,1.1c-0.7,0.5-1.3,1.1-1.7,1.8c-0.4,0.8-0.7,1.7-0.6,2.5c-0.1,1.7,0.6,3.4,1.9,4.6c1.6,1.4,3.5,2.3,5.6,2.9
	l3,0.9c1.3,0.4,2.6,0.9,3.9,1.5c1.3,0.6,2.4,1.3,3.5,2.2c1,0.9,1.9,1.9,2.5,3.1c0.7,1.3,1,2.7,1,4.2c0,3.5-1.2,6.2-3.5,8
	c-2.3,1.8-5.6,2.8-9.9,2.8c-4.5,0-9-1.2-12.8-3.7L265.6,132.4z"/>
<path class="st2" d="M297.5,113.9c2.1-0.4,4-0.7,5.7-0.9c1.6-0.2,3.2-0.3,4.8-0.3c1.4,0,2.9,0.1,4.3,0.5c1.3,0.3,2.4,0.8,3.4,1.7
	c1,0.9,1.8,2,2.2,3.3c0.5,1.7,0.8,3.4,0.8,5.2v15.2h-3.2v-13.8c0-1.5-0.1-3-0.5-4.5c-0.3-1-0.8-1.9-1.5-2.7
	c-0.7-0.6-1.5-1.1-2.4-1.3c-1.1-0.3-2.2-0.4-3.3-0.4c-2.4,0-4.7,0.3-7,0.7v21.9h-3.2L297.5,113.9z"/>
<path class="st2" d="M336.3,139c-1.4,0-2.8-0.1-4.2-0.4c-1.3-0.2-2.5-0.7-3.6-1.3c-1-0.6-1.9-1.4-2.5-2.5c-0.7-1.1-1-2.5-1-3.8
	c0-3,1.2-5.2,3.5-6.5c2.9-1.4,6.1-2.1,9.3-2c0.7,0,1.6,0,2.6,0.1s1.8,0.2,2.5,0.3v-0.3c0-2.5-0.6-4.2-1.7-5.3s-2.9-1.6-5.3-1.6
	c-0.7,0-1.4,0.1-2.1,0.2c-0.7,0.1-1.4,0.3-2.1,0.5c-0.7,0.2-1.4,0.4-2,0.7c-0.6,0.3-1.5,0.7-2.7,1.4l0.1-3.7
	c1.5-0.8,3.1-1.4,4.7-1.7c1.4-0.3,2.8-0.5,4.3-0.5c3.4,0,5.9,0.8,7.6,2.3s2.5,4,2.5,7.3v14.8c-1.5,0.6-3.1,1.1-4.8,1.4
	C339.7,138.8,338,139,336.3,139z M342.9,126.3c-0.4-0.1-1.2-0.2-2.4-0.3c-1.1-0.1-2.1-0.2-3.2-0.2c-1.1,0-2.2,0.1-3.4,0.2
	c-1,0.1-2,0.4-2.9,0.8c-0.8,0.3-1.5,0.8-2,1.5c-0.5,0.8-0.8,1.7-0.7,2.6c0,0.8,0.2,1.7,0.6,2.4c0.4,0.6,1,1.1,1.6,1.5
	c0.8,0.4,1.6,0.7,2.4,0.8c1,0.2,2,0.2,3,0.2c1.3,0,2.5-0.1,3.7-0.3c1-0.2,2.1-0.4,3.1-0.8L342.9,126.3z"/>
<path class="st2" d="M352.5,131.1c-1.3-3.4-1.3-7.2,0-10.5c0.6-1.6,1.6-3,2.7-4.2c1.1-1.2,2.5-2.1,4-2.8c1.6-0.7,3.3-1,5-1
	c1.6,0,3.3,0.2,4.9,0.6c1.5,0.4,3,1,4.3,1.8l-1.5,3c-2.3-1.5-5-2.2-7.7-2.2c-2.5,0-5,1-6.7,2.9c-0.8,0.9-1.5,2-1.9,3.2
	c-0.9,2.6-0.9,5.4,0,7.9c0.4,1.2,1.1,2.2,1.9,3.1c0.8,0.9,1.8,1.6,2.9,2.1c1.2,0.5,2.5,0.8,3.8,0.8c2.7,0.1,5.4-0.7,7.7-2.1l1.5,3
	c-1.4,0.8-2.8,1.4-4.3,1.8c-1.6,0.4-3.2,0.6-4.9,0.6c-1.7,0-3.4-0.3-5-1c-1.5-0.6-2.9-1.6-4-2.7
	C354.1,134.1,353.1,132.7,352.5,131.1z"/>
<path class="st2" d="M394.2,138c-4.9,2.1-10.6,1-14.3-2.8c-5-5.2-5-13.4,0-18.6c1.2-1.2,2.5-2.2,4.1-2.8c3.2-1.4,6.9-1.4,10.2,0
	c1.5,0.7,2.9,1.6,4.1,2.8c1.2,1.2,2.1,2.6,2.7,4.2c1.3,3.3,1.3,6.9,0,10.2c-0.6,1.5-1.6,3-2.7,4.2
	C397.1,136.4,395.7,137.3,394.2,138z M385.2,135c3.6,1.6,7.9,0.8,10.6-2.1c0.8-0.9,1.5-2,1.9-3.2c0.5-1.2,0.7-2.5,0.7-3.8
	c0-1.3-0.2-2.6-0.7-3.9c-0.4-1.2-1.1-2.2-1.9-3.2c-0.8-0.9-1.9-1.6-3-2.1c-2.4-1.1-5.2-1.1-7.7,0c-1.1,0.5-2.2,1.2-3,2.1
	c-0.8,0.9-1.5,2-1.9,3.2c-0.5,1.2-0.7,2.6-0.7,3.9c0,1.3,0.2,2.6,0.7,3.8c0.5,1.2,1.1,2.3,2,3.2C383.1,133.8,384.2,134.5,385.2,135
	L385.2,135z"/>
<path class="st2" d="M440.2,124.7c0-1.5-0.1-3-0.5-4.5c-0.2-1-0.7-1.9-1.3-2.6c-0.6-0.6-1.4-1.1-2.2-1.3c-1.1-0.3-2.1-0.4-3.2-0.4
	c-0.6,0-1.1,0-1.7,0.1c-0.6,0.1-1.2,0.2-1.8,0.3c-0.6,0.2-1.3,0.3-1.9,0.6c-0.6,0.2-1,0.4-1.2,0.5c0.3,0.7,0.5,1.5,0.7,2.3
	c0.2,1.2,0.4,2.4,0.3,3.7v15.2h-3.2v-13.9c0-1.5-0.1-3-0.5-4.5c-0.2-1-0.7-1.9-1.3-2.6c-0.6-0.6-1.4-1.1-2.3-1.3
	c-1.1-0.3-2.2-0.4-3.3-0.4c-1,0-2,0.1-3,0.2c-0.9,0.2-1.8,0.3-2.8,0.5v21.9h-3.2V114l5.2-1c1.3-0.2,2.7-0.4,4-0.4
	c1.4,0,2.9,0.1,4.3,0.5c1.1,0.2,2.2,0.7,3,1.5c1.4-0.6,2.8-1.1,4.3-1.4c1.5-0.4,3.1-0.6,4.6-0.6c1.4,0,2.9,0.1,4.3,0.5
	c1.2,0.3,2.3,0.9,3.2,1.7c0.9,0.9,1.6,2.1,2,3.3c0.5,1.7,0.8,3.4,0.7,5.2v15.2h-3.2V124.7z"/>
</svg>
